<?xml version="1.0" encoding="UTF-8"?><svg id="Layer_2" xmlns="http://www.w3.org/2000/svg" viewBox="0 0 600.32 399.47"><defs><style>.cls-1{fill:#cfb046;}.cls-2{fill:#3e3f41;}.cls-3{fill:#f1d770;}.cls-4{fill:#f4f4f4;}.cls-5{fill:#cbad47;}.cls-6{fill:#816c32;}.cls-7{fill:#897e3d;}.cls-8{fill:#eed169;}.cls-9{fill:#bba246;}.cls-10{fill:#e4ce6d;}.cls-11{fill:#cacaca;}.cls-12{fill:#716634;}.cls-13{fill:#cdbf5d;}.cls-14{fill:#f4d975;}.cls-15{fill:#f1c64c;}.cls-16{fill:#69202f;}.cls-17{fill:#ecc64e;}.cls-18{fill:#ceb045;}.cls-19{fill:#bc9f4b;}.cls-20{fill:#5c5b60;}.cls-21{fill:#88202f;}.cls-22{fill:#a5a5a4;}.cls-23{fill:#862034;}.cls-24{fill:#998643;}.cls-25{fill:#ccb13f;}.cls-26{fill:#ad2941;}.cls-27{fill:#b39941;}.cls-28{fill:#b49b46;}.cls-29{fill:#6d6134;}.cls-30{fill:#101312;}.cls-31{fill:#ba9c40;}.cls-32{fill:#e7c867;}.cls-33{fill:#dd4c67;}.cls-34{fill:#554e2d;}.cls-35{fill:#402f18;}.cls-36{fill:#c5a844;}.cls-37{fill:#f3d772;}.cls-38{fill:#761a2c;}.cls-39{fill:#661a2d;}.cls-40{fill:#a02c4a;}.cls-41{fill:#9c8945;}.cls-42{fill:#b19b46;}.cls-43{fill:#d62940;}.cls-44{fill:#c0a746;}.cls-45{fill:#8a7536;}.cls-46{fill:#f2d572;}.cls-47{fill:#101112;}.cls-48{fill:#bca142;}.cls-49{fill:#c6a944;}.cls-50{fill:#c5a745;}.cls-51{fill:#811f35;}.cls-52{fill:#aa9143;}.cls-53{fill:#711b2c;}.cls-54{fill:#741d2a;}.cls-55{fill:#efc953;}.cls-56{fill:#a28741;}.cls-57{fill:#c5a946;}.cls-58{fill:#d4d3d1;}.cls-59{fill:#7c1b28;}.cls-60{fill:#4e161d;}.cls-61{fill:#2b1d0f;}.cls-62{fill:#fbfbfb;}.cls-63{fill:#ecc64c;}.cls-64{fill:#d72a40;}.cls-65{fill:#f1d674;}.cls-66{fill:#c7ab46;}.cls-67{fill:#c1a646;}.cls-68{fill:#6e1c25;}.cls-69{fill:#831d2e;}.cls-70{fill:#c7aa44;}.cls-71{fill:#675b31;}.cls-72{fill:#ebc64d;}.cls-73{fill:#742129;}.cls-74{fill:#bda243;}.cls-75{fill:#e79bb7;}.cls-76{fill:#bb9c3f;}.cls-77{fill:#ae748b;}.cls-78{fill:#f1d470;}.cls-79{fill:#767575;}.cls-80{fill:#d9d7d7;}.cls-81{fill:#1f1a18;}.cls-82{fill:#8d8045;}.cls-83{fill:#f1f1f1;}.cls-84{fill:#81202d;}.cls-85{fill:#c2a745;}.cls-86{fill:#645222;}.cls-87{fill:#edc74d;}.cls-88{fill:#7e1e29;}.cls-89{fill:#e5c966;}.cls-90{fill:#634f28;}.cls-91{fill:#ecd26b;}.cls-92{fill:#bfa342;}.cls-93{fill:#c3a544;}.cls-94{fill:#f1d46f;}.cls-95{fill:#c7ab4a;}.cls-96{fill:#f2d874;}.cls-97{fill:#871e2e;}.cls-98{fill:#b49b40;}</style></defs><g id="Layer_1-2"><path class="cls-47" d="M576.16,56.29c3.97,9.75,4.65,20.26,6.96,30.39,.25,1.12,.02,2.8,.69,3.3,7.2,5.39,8.26,14.7,13.81,21.3,3.36,3.99,3.53,10.09,.85,15.57-2.7,5.54-6.85,9.8-11.25,13.87-2.75,2.54-4.31,5.39-3.96,9.22,.49,5.34-.87,10.58-1.11,15.88-.08,1.85-.33,3.93,1.03,5.26,5.5,5.42,5.4,12.19,4.98,19.09,.68,3.58-1.97,5.49-4.06,7.46-2.34,2.22-3.15,4.7-3.58,7.86-1.46,10.9-1.99,21.81-2.03,32.81-.07,18.31,3.36,35.85,8.91,53.26,5.27,16.54,8.1,33.77,4.85,51.08-3.27,17.39-12.63,30.76-29.98,36.95-23.27,8.3-46.02,7.47-67.86-4.93-9.17-5.39-18.42-10.67-25.65-18.71-1.82-2.03-3.68-1.78-5.78-.54-10.33,6.12-21.12,11.33-32.15,16.02-21.68,9.24-44.2,15.43-67.48,19.26-19.62,3.23-39.3,4.14-59.12,3.88-17.52-.23-34.69-2.68-51.74-6.64-16.37-3.8-32.19-9.13-47.61-15.75-1.22-.52-2.39-1.17-3.37-2.09-7.89-3.82-15.74-7.72-23.68-11.45-8.71-4.09-17.18-8.62-25.21-13.9-2.57-1.69-4.05-1.06-5.21,1.08-9.23,16.95-26.05,24.33-41.75,33-8.37,4.62-17.23,8.34-26.32,11.41-8.68,2.72-17.44,5.2-26.3,7.23-10.43,2.39-20.97,2.64-31.52,.62-2.35-2.58-6.16-4.49-4.13-9.06,4.02-1.35,7.79,.7,11.71,.91,13.95,.78,27.15-2.25,40.27-6.59,6.44-2.13,13.05-3.6,18.66-7.66,5.16-4.01,11.41-6.02,17.05-9.17,5.52-3.09,10.75-6.61,16.19-9.81,10.71-6.31,17.17-15.96,21.34-27.31,3.14-8.56,6.48-17.09,7.99-26.17,3.87-18.22,6.98-36.53,8.41-55.13,1.68-21.86,3.07-43.73,4.13-65.63,1.24-25.82,.39-51.61,.58-77.41,.04-5.09-1.03-10.24-.78-15.41,.1-1.95-.11-4.46,2.51-4.79,2.9-.37,3.63,2.26,3.82,4.32,.46,5.13,1.54,10.2,1.42,15.39-.12,5.27,.77,10.43,1.66,16.36,5.6-6.03,7.62-12.83,9.55-19.65,.45-1.6,.81-3.23,1.33-4.81,.5-1.5,1.5-2.78,3.23-2.63,1.96,.17,2.67,1.74,3,3.49,.48,2.54-.41,4.95-.73,7.41-1.46,11.32-4.91,21.67-13.85,29.52-3.56,3.13-2.4,7.51-1.92,11.32,.46,3.66,.84,7.29,.67,10.93-.47,10,1.62,19.91,1.06,29.91-.16,2.83-.1,5.65-.78,8.44-.15,.61-.42,1.86,.94,1.59,.56-.11,.79-1.01,1.09-1.61,3.97-8.03,9.24-15,16.56-20.27,3.89-2.8,5.96-2.66,8.58,.45,2.73,3.24,2.75,6.06-.6,9.18-5.15,4.79-9.83,9.75-12.99,16.23-5.3,10.87-4.52,21.17,1.51,31.35,5.97,10.9,15.27,18.62,24.89,25.99,12.56,9.62,27.35,14.75,41.85,20.44,2.78,1.09,5.59,2.1,8.3,3.37,16.74,6.54,33.82,12.06,51.01,17.29,25.3,7.71,50.89,14.3,77.04,18.32,14.91,2.29,29.86,4.31,45.02,4.96,10.16,.44,20.24,.36,30.31-.34,25.46-1.79,49.63-7.86,70.08-24.09,16.43-13.03,19.32-26.68,14.57-46.7-3.11-13.11-10.65-23.88-19.52-33.78-1.51-1.68-3.44-2.11-5.44-1.69-2.24,.48-4.48,1.01-8.17,1.32,6.67,4.61,10.91,9.83,15.07,15.14,4.56,8.37,8.68,16.85,8.56,26.77-.12,10.11-3.47,19.09-10.2,26.39-7.85,8.52-17.37,14.62-28.48,18.65-17.9,6.5-36.32,8.88-55.17,9.93-16.2,.91-32.09-.8-48.05-2.95-26.47-3.58-52.03-10.78-77.33-19.02-10.9-3.55-21.59-7.73-32.29-11.86-14.34-5.81-28.58-11.85-42.59-18.41-11.59-5.42-23.62-10.11-33.97-17.79-10.36-7.69-18.34-16.8-17.67-31.07,.57-12.18,7.34-20.96,19.22-23.44,6.13-1.28,12.12-.82,18.13,1.3,11.48,4.05,23.42,6.23,35.37,8.43,11.92,2.19,23.93,3.74,35.92,5.3,10.35,1.35,20.75,2.49,31.14,3.64,29.5,3.29,59.11,3.6,88.7,2.86,21.23-.53,42.47-1.45,63.65-3.54,14.04-1.39,28.17-1.95,42.08-4.38,13.76-2.4,27.44-5.38,40.17-11.36,7.99-3.76,8.7-8.69,2.1-14.53-6.27-5.54-13.6-9.49-21.44-12.49-2.6-1-4.98-.33-7.31,.39-14.7,4.56-29.86,6.82-45.11,7.51-12.1,.54-24.19-1.49-35.69-5.81-2.65-.99-5.37-1.8-7.98-2.86-3.86-1.4-7.07-4.02-10.78-5.72-2.55-2.09-5.49-3.76-7.34-6.63-7.28-7.33-14.31-14.82-19.03-24.19-3.67-7.28-3.22-8.65,4.33-11.07,21.58-6.92,43.68-11.62,66.17-13.85,20.51-2.04,41.09-2.18,61.67,.44,12.38,1.58,24.56,3.73,36.52,7.25,.44,.13,.99,.29,1.44-.32,.45-2.04-1.1-3.21-2.26-4.54-8.32-9.52-19.23-14.42-31.13-17.66-17.09-4.66-34.45-6.63-52.17-6.98-12.69-.25-25.03,.69-37.37,3.68-12.97,3.14-25.49,7.27-37.33,13.47-1.9,1-4.73,3.09-6.04,.29-1.03-2.22,2.29-3.1,3.98-4.28,.41-.29,.84-.54,1.27-.8,15.01-7.21,30.61-12.75,46.84-16.53,15.58-2.69,31.13-4.01,47.05-2.62,12.22,1.07,24.43,1.72,37.57,4.97-2.9-5.17-6.81-7.22-10.85-9.29-6.28-3.23-13.28-4.01-19.85-6.2-3.02-2.48-6.72-1.19-10.08-1.74-12.78-2.08-25.61-2.69-38.4-.05-3.07,.63-6.34-.2-9.26,1.32-.49,.24-1,.42-1.52,.56-2.92,.81-6.32-.36-8.83,2.15-5.39,1.73-10.83,3.28-16.43,4.2-1.46-.11-3.38,.11-3.66-1.71-.28-1.79,1.48-2.36,2.93-2.83,14.04-4.54,28.02-9.05,42.93-10.26,8.89-.72,17.77-1.26,26.67-1.58,1.48,.25,2.83,1.25,4.28,1.24,2.24-.03,.27-1.12,.23-1.74-6.21-6.91-12.97-13.25-19.93-19.34-5.49-4.8-11.62-8.79-17.83-12.64-1.04-1.09-2.31-2.26-1.07-3.82,1.22-1.52,2.87-.83,3.99,.12,2.66,2.27,5.35,2,8.32,.81,2.96-1.18,5.51-.59,7.25,2.34,1.25,2.1,3.3,3.17,5.46,4.07,9.49,5.54,16.67,13.6,23.34,22.06,3.94,5,7.98,8.75,14.8,9.57,7.78,.94,15.1,3.82,21.38,8.84,1.58,1.27,3.02,2.59,3.96,4.39,2.42,3.62,3.59,7.73,4.68,11.91-.82-9.11-2.99-17.88-6.43-26.33-1.54-3.79-4.51-6.98-4.72-11.33,2.38-3.11,4.02-.81,5.18,1.01,2.91,4.52,5.88,8.93,10.43,12Z"/><path class="cls-81" d="M6.35,323.28c5.03-6.15,5.52-13.59,5.98-21.04,2.17-3.85,3.22-7.91,3-12.39-.49-10.12,2.26-20.01,2.15-30.18-.11-10.82-2.76-21.25-3.45-31.92-.73-11.38-3.97-22.37-3.94-33.94,.03-12.71-2.14-25.43-1.64-38.18,.47-11.87,1.31-23.78,2.92-35.55,1.26-9.19,3.93-18.19,6.08-27.26,.37-1.56,1.24-3.01,1.88-4.51,.77-4.07,3.48-7.28,4.98-11.03,1.4-5.45,5.7-8.91,9-13.04,3.55-4.16,8.57-7.16,10.15-12.87,4.18-3.09,6.79-8.03,11.85-10.09,2.41-3.54,6.28-5.5,9.63-7.67,7.89-5.11,15.35-11.07,24.36-14.3h.02c5.92-3.45,12.64-4.72,18.99-7h0c8.59-2.49,17.44-3.93,26.31-3.89,15.06,.07,29.74,2.75,43.64,8.9h0c3.74,2.46,7.66,4.57,11.82,6.25,4.23,1.71,8.16,1.41,12.44-.5,8.12-3.63,15.95-8.01,24.63-10.31,1.33-.35,2.31-1.29,3.43-2,20.98-6.54,42.42-8.68,64.29-7.04,10.22,.77,20.39,1.82,30.3,4.61,5.11,3.31,11.23,3.75,16.82,5.69,2.12,.74,4.23,1.69,6.4,2.38,8.11,2.58,15.03-.64,21.81-4.15C391.17,1.42,413.65-1.39,436.64,.59c11.6,1,23.11,3.69,33.74,9.53,7.82,4.29,16.82,7.48,25.72,4.88,7.3-2.13,14.41-1.31,21.61-1.72,3-.17,5.88,.54,8.55,1.98-1.11,1.36-2.63,1.13-4.35,1.01,2.66,.59,5.1,1.05,7.29,2.01-.91-1-3.33-.6-2.95-3.02,13.22,.82,23.08,7.95,31.59,17.25,5.68,6.21,10.9,12.85,16.3,19.32,1.07,1.28,1.94,2.7,2.02,4.46-6.45-.6-7.91-6.39-10.94-10.54-1.02-1.39-1.07-4.19-3.99-2.48-2.73,.34-3.04-1.72-3.56-3.58-.58-3.43-2.07-6.1-5.78-6.93-1.66-.23-3.04-1.19-4.56-1.76-11.91-7.86-24.92-11.93-39.27-11.38-5.78,.22-5.95,.4-4.67,5.63-2.75-.42-5.02-1.81-6.21-4.24-1.58-3.23-3.78-3.2-6.49-1.89-3.19,1.54-6.14,2.2-8.7-1.24-.55-.74-2-1.79-2.95-.54-.94,1.24,1,1.82,1.25,2.88-.38,.41-.84,.65-1.39,.73-3.88-.04-6.81-2.52-10.06-4.09-24.64-11.95-50.12-13.13-76.25-6.09-7.4,1.99-14.57,4.64-21.42,8.09-1.15,.58-3.91,.83-1.52,3.25,.87,.55,1.73,1.11,2.54,1.73,3.95,2.77,8.2,5.06,12.06,7.97,1.8,1.36,3.77,2.89,2.14,5.27-1.38,2.03-3.59,1.17-5.43,.23-6.37-3.24-12.41-7.05-18.86-10.17-19.38-9.39-39.64-14.87-61.16-16.75-16.82-1.47-33.2,.31-49.48,3.7-18.79,3.91-36.99,9.69-53.07,20.69-2.56,1.75-4.84,1.66-7.3-.19-4.92-3.71-10.19-6.87-15.84-9.36-19.06-9.66-39.04-11.33-59.69-6.71-23.17,5.18-43.1,16.35-60.21,32.71-15.99,14.29-27.89,31.06-33.02,52.3-3.33,13.8-4.85,27.74-5.8,41.86-.54,7.98-1.08,15.95-.76,23.91,.73,17.91,1.54,35.86,4.69,53.54,3.17,17.8,4.05,35.7,3.11,53.66-.82,15.8-3.86,31.26-8.91,46.34-3.89,11.62-8.64,23.07-8.02,35.78,.36,7.33,1.98,14.13,6,20.3,.58,1.12,1.04,2.28,1.12,3.55-.3,1.43-1.2,2.72-1.11,4.26-.11,.18-.22,.35-.33,.53-1.47-.1-2.31-.84-2.97-2.22-1.56-3.27-3.2-6.5-5.49-9.38-3.26-4.09-3.22-9.25-3.66-14.05-.93-10.32,1.59-20.24,4.48-30.07,.79-2.68,1.13-5.49,1.68-8.24Z"/><path class="cls-2" d="M24.32,77.29c-.3,4.29-3.17,7.42-4.98,11.03-.58-4.69,2.48-7.73,4.98-11.03Z"/><path class="cls-64" d="M345.34,277.17c1.83,1.29,3.57,2.74,5.87,3.15,2.48,2.69,7.08,2.55,8.61,6.5-.32,2.71-2.38,2.32-4.19,2.36-2.5-.55-4.67-2.05-7.18-2.54-1.7-1.18-3.73-1-5.63-1.39-10.56-3.11-20.74-7.36-31.31-10.43-5.25-2.59-10.9-4.18-16.25-6.55l-.04,.05c-7.91-3.29-15.94-6.25-23.87-9.49-4.79-1.77-9.12-4.61-14.04-6.08-3.17-1.85-6.57-3.19-9.96-4.55h0c-7.26-4.27-14.9-7.81-22.36-11.69-6.96-5.08-13.81-10.06-15.93-19.35-1.33-5.85,1.21-12.89,6.86-15.88,3.64-.59,7.3-.46,10.95-.19,1.07,.25,2.22,.11,3.24,.62,5.32,3.13,11.44,3.95,17.26,5.26,7.98,1.8,16.06,3.37,24.17,4.68,5.18,.83,9.23,5.38,13.39,8.85,5.58,4.36,11.79,7.98,16.66,13.2,2.98,3.2,6.54,5.54,10,8.07,4.69,5.99,11.06,10.41,15.59,16.55h0c3.97,5.99,9.17,10.81,14.61,15.39,1.28,1.08,2.39,2.27,3.53,3.47Z"/><path class="cls-27" d="M199.31,262.24c4.25,1.69,7.21,5.23,10.93,7.7,15.69,10.43,33.45,16.25,50.77,22.97,17.65,6.85,35.69,12.69,53.87,17.99,25.05,7.3,50.4,13.29,76.16,17.62,17.76,2.99,35.62,4.77,53.57,5.26,8.25,.23,16.62,.28,24.86-1.12,1.6-.27,3.7-.93,4.36,1.1,.61,1.87-1.61,2.19-2.78,2.95-27.96,18.27-57.93,31.94-90.69,39-26.61,5.74-53.56,8.77-80.76,7.24-28.41-1.59-55.85-8.19-82.43-18.34-.75-.29-1.4-.86-2.09-1.29,.85-1.01,1.98-1.09,3.17-.96,12.86,3.84,25.4,8.75,38.62,11.39,14.29,2.86,28.59,5.76,43.24,6.04,27.36,1.11,54.34-1.53,81.03-7.7,29.29-6.78,56.55-18.31,81.97-34.26,.79-.55,1.84-.65,2.67-1.59-3.52,1.49-7.2,.77-10.6,1.86-.51,.15-1.02,.24-1.55,.29-8.96-1.06-18.05,.1-26.92-.93-9.35-1.09-18.76-1.72-28.1-3.26-14.45-2.38-28.77-5.27-43.08-8.29-12.37-2.61-24.52-6.11-36.69-9.49-8.96-2.49-18.08-4.53-26.45-8.8-4.64-2.86-9.81-4.16-15.1-5.09-8.07-2.78-16.5-4.6-24.02-8.86-1.52-1.45-3.36-2.24-5.42-2.55-.44-.11-.87-.27-1.29-.45-3.17-1.29-6.25-2.81-9.64-3.48-5.12-.81-9.34-3.62-13.68-6.15-2.44-1.78-5.03-3.27-8.04-3.88-3.54-2.18-6.91-4.61-10.36-6.93-1.5-1.91-3.15-3.67-5.15-5.09-.34-.3-.61-.65-.82-1.06-.18-.7-.09-1.33,.46-1.85Z"/><path class="cls-6" d="M455.22,162.3c7.88,1.94,15.28,5.37,23.35,6.87,13.79,2.57,27.44,1.84,41.14-.28,7.89-1.22,15.8-2.48,23.34-5.12,4.96-1.74,9.31-1.13,13.77,1.21,6.77,3.55,13.65,6.9,19.09,12.47,5.14,5.27,4.93,9.39-1.3,13.44-8.78,5.71-18.95,7.83-28.93,10.33-21.54,5.38-43.64,6.33-65.64,8.15-33.22,2.75-66.49,3.42-99.79,2.73-21.28-.44-42.41-2.85-63.55-5.24-12.54-1.42-25.08-2.94-37.52-4.87-15.57-2.41-31.23-4.88-46.12-10.35-11.07-4.06-24.35-.97-30.76,7.6-6.3,8.42-5.43,23.1,1.53,32.23,6.53,8.57,15.08,14.35,24.58,18.96,20.2,9.79,40.48,19.39,61.52,27.29,.58,.22,1.02,.83,1.52,1.26-.13,.21-.27,.42-.4,.64-2.4,1.37-4.54,.15-6.6-.83-8.69-4.14-17.76-7.39-26.5-11.41-.47-.16-.92-.36-1.36-.58-11.15-5.37-22.46-10.41-33.51-16.01-2.82-1.43-5.35-3.28-8.13-4.73-9.98-6.24-16.81-14.83-19.65-26.4-1.04-9.99,.06-19.21,8.39-26.29,4.36-3.7,9.3-5.66,14.83-6.46,3.35,.08,6.71-.24,10.05,.29,1.08,.21,2.1,.64,3.19,.82,8.93,3.15,18.19,5.07,27.36,7.36,22.81,4.47,45.78,7.61,68.94,9.7,19.17,1.74,38.26,3.77,57.55,4.05,8.43,.12,16.91,.58,25.37,.73,2,.03,4,.06,5.92-.6,.9-.23,1.8-.36,2.73-.37,7.14-.05,14.28,.13,21.42-.06,14.22-.37,28.38-1.84,42.58-2.73,13.06-.82,26.03-2.5,39.05-3.47,.53-.19,1.09-.32,1.65-.43,6.92-.53,13.64-2.19,20.37-3.74,8.88-2.53,17.92-4.6,26.01-9.35,2.46-1.45,4.95-2.8,5.08-6.13-1.6-5.56-6.15-7.93-10.91-10.08-.48-.21-.91-.48-1.32-.79-1.29-.78-2.51-1.67-3.81-2.4-5.36-3.02-10.66-4.45-17.06-2.5-18.63,5.67-37.84,7.09-57.24,6.43-3.86-.03-7.58-.78-11.2-2.08-3.01-1.41-6.27-1.77-9.52-2.15-.5-.07-.99-.2-1.46-.36-2.84-1.81-7.03-1.5-8.56-5.39-.04-.53,.12-.98,.5-1.36Z"/><path class="cls-66" d="M479.06,348.32c-2.54-1.69-2.38-3.33,.06-4.99,10.64-7.23,20.47-15.27,33.27-19.43,18.31-5.95,34.78-15.58,46.15-32.16,7.75-11.3,7.98-23.81,6.19-36.48-2.02-14.25-7.67-27.1-17.01-38.25-3.95-4.71-3.65-5.17,2.27-6.76,4.49-1.2,9.01-2.36,13.37-3.93,3.94-1.42,4.5-.15,4.23,3.58-1.51,20.63-1.16,41.2,2.56,61.63,1.71,9.37,5.56,18.12,7.83,27.31,4.23,17.13,6.92,34.32-.37,51.39-.32,.74-.81,1.41-1.23,2.11-.48,.34-.95,.33-1.42-.03-1.62-3.03,.97-5.39,1.29-8.1,5.47-18.88,.99-36.9-4.89-54.76-.77-2.35-1.18-4.8-2.26-7.48-3.38,5.39-5,11.29-8.72,16.23-8.25,10.95-19.1,18.26-31.05,24.43-7.74,3.99-16.4,5.69-24.03,9.48-8.65,4.31-17.02,9.67-23.71,17.04-1.22,.88-1.78-.28-2.55-.82Z"/><path class="cls-52" d="M177.41,194.3c-.98,2.28-.72,6.48-3.79,5.91-2.3-.42-1.02-4.37-.85-6.75,1.12-15.32-.51-30.58-.93-45.86-.09-3.16-.26-6.31-.49-9.46-.15-2.02,.58-3.5,2.18-4.72,9.01-6.84,11.77-16.88,13.74-27.27,.52-2.77,.69-5.61,.9-8.43,.1-1.32,.11-2.94-1.67-3.1-1.77-.16-1.95,1.44-2.23,2.75-1.65,7.86-4.1,15.4-8.69,22.11-1,1.46-1.59,3.88-3.8,3.21-2.17-.66-1.38-3.08-1.51-4.83-.75-9.44-1.42-18.9-2.31-28.33-.15-1.54,.23-4.42-2.45-4-2.11,.33-1.24,2.8-1.17,4.31,1.38,27.11,1.53,54.26,.75,81.37-.99,34.73-2.73,69.45-7.77,103.88-1.44,9.82-2.78,19.72-5.89,29.23-.62,.3-1.15,.18-1.58-.36-1.28-2.24-.65-4.55-.16-6.81,5.32-24.45,7.23-49.29,9.33-74.16,3.26-38.69,2.7-77.43,2.8-116.17,.01-5.01-1.28-9.91-1.03-14.92,.09-1.83-.03-3.68,.54-5.44,.72-2.22,2.13-3.8,4.59-3.98,2.53-.19,4.04,1.3,4.95,3.44,1.12,2.63,1.61,5.49,1.66,8.28,.12,6.83,1.25,13.58,1.33,20.97,3.79-6.22,5.14-12.84,7.34-19.13,1.11-3.19,2.75-5.33,6.53-4.55,3.5,1.93,3.56,5.16,3.33,8.58-.6,9-3.14,17.45-6.95,25.56-.87,2.02-2.05,4.16-3.73,5.21-6.84,4.27-6.31,10.94-5.56,17.25,1.07,9.12,.68,18.23,.87,27.34,.02,1.17,.22,2.31,.52,3.43,.34,1.54,.45,3.11,.4,4.68,.24,3.29-2.39,6.55-.07,9.85,.36,.23,.64,.53,.87,.88Z"/><path class="cls-24" d="M532.96,232.4c-4.46-4.91-8.47-10.28-14.23-13.87-.71-.44-1.47-.99-1.31-1.94,.22-1.25,1.34-1.36,2.33-1.37,2.68-.03,5.23-.44,7.84-1.22,1.84-.56,3.94,.02,5.43,1.71,10.38,11.74,19.04,24.46,21.59,40.32,3.34,20.83-2.47,33.68-20.95,46.27-21.68,14.77-46.31,20.15-72.23,21.21-41.87,1.71-82.4-6.12-122.6-16.51-24.15-6.24-47.85-13.93-71.26-22.54-1.52-.56-3.3-.64-4.31-2.21,.88-.98,2.03-1.1,3.24-1.01,12.39,3.83,24.54,8.36,36.9,12.3,18.25,5.81,36.78,10.42,55.34,15.04,21.84,5.44,44.03,8.66,66.38,10.94,18.57,1.89,37.13,1.74,55.62-1.16,1.05-.27,2.12-.4,3.2-.5,3.03-.3,6.02-.89,9-1.5,12.5-3.59,24.47-8.36,35.69-15.08,9.56-5.72,17.18-12.95,21.26-23.51,.3-.77,.83-1.43,1.27-2.14,2.58-7.5,.41-14.83-1.02-22.1-2.61-13.32-9.86-24.23-18.73-34.18-2.23-2.94-5.14-1.72-8.14-1.66,.84,1.94,2.51,2.57,3.5,3.83,2.77,3.44,6.77,6.04,7.5,10.89-.45,.28-.89,.25-1.32-.04Z"/><path class="cls-77" d="M403.55,282.15c-18.29,.25-34.43-2.69-48.86-12.3-6.17-4.1-11.32-9.32-16.08-14.89-11.05-12.94-22.83-25.09-36.35-35.49-1.11-.86-3.03-1.8-2.43-3.39,.77-2.03,2.88-1.02,4.41-.82,25.41,3.32,50.92,5.59,76.53,6.67,19.49,.82,38.96,.11,58.44-.66,8.41-.33,8.42-.22,10.57,7.93,2.45,9.29,3.06,18.66,1.55,28.19-1.73,10.93-10.25,19.61-22.36,21.91-8.81,1.68-17.71,3.08-25.42,2.85Z"/><path class="cls-35" d="M428.45,93.52c-1.85,1.31-3.7,2.62-6.07,4.3,2.9,.63,4.57-.94,6.3-1.83,11.52-5.95,23.72-9.75,36.23-13.09,10.54-2.82,21.25-4.4,31.85-4.25,14.85,.21,29.77,.99,44.51,3.98,11.6,2.35,22.89,5.29,33.31,10.88,6.34,3.4,11.75,8.11,15.54,14.32,.56,.92,2.6,2.25,.88,3.84-1.21,1.12-2.54,.21-3.74-.27-4.18-1.66-8.62-2.28-12.95-3.37-23.78-5.98-48-6.71-72.22-5.51-22.19,1.1-44.08,4.92-65.49,11.11-5.09,1.47-10.09,3.36-15.27,4.35-4.64,.88-4.35,2.85-2.68,6.21,4.33,8.72,9.95,16.43,17.06,23.08,1.3,1.21,2.97,2.22,3.41,4.18-1.69,.91-2.88-.14-3.97-1.13-8.08-7.28-14.9-15.55-19.41-25.54-1-2.22-2.16-4.59-.57-7.1,1.5-1.73,3.64-2.18,5.67-2.83,13.98-4.46,28.17-8.11,42.64-10.6,19.47-3.59,39.1-5.75,58.91-5.3,20.12,.46,40.09,2.42,59.62,7.67,1.05,.28,2.12,.97,3.52,.08-3.88-5.99-9.67-9.4-15.85-12.26-13.44-6.22-27.79-8.84-42.34-10.7-8.58-1.1-17.21-1.7-25.82-1.94-27.27-.76-52.51,6.97-76.6,19.17-2.49,1.26-5.69,4.27-7.85,.73-2.43-3.99,2.15-5.12,4.49-6.86,1.59-1.18,3.37-2.17,5.48-2.17,.59,.08,1.06,.36,1.41,.85Z"/><path class="cls-45" d="M532.96,232.4c.45-.06,.9-.11,1.35-.17,4.76,1.96,4.88,6.95,6.97,10.65,2.28,6.64,4.05,13.25,2.92,20.49-2.58,16.52-12.37,27.66-26.16,35.75-16.57,9.71-34.95,13.5-53.79,15.49-8.75,.93-17.51,2.61-26.31,1.88-15.54-1.27-31.17-1.96-46.49-5.2-18.69-3.28-36.97-8.25-55.15-13.6-11.67-2.66-23.06-6.28-34.02-11.06-3.85-1.68-8.66-1.56-11.39-5.57-.14-.54-.08-1.06,.18-1.55,.14-.17,.26-.35,.38-.53,11.74,4.17,23.43,8.44,35.21,12.47,22.05,7.54,44.66,13.08,67.53,17.37,13.88,2.6,28.06,4.06,42.14,4.03,24.83-.05,49.56-2.17,72.66-12.53,15.28-6.85,27.48-16.97,31.58-34.17,1.9-7.99,.45-15.89-2.67-23.42-1.46-3.53-3.29-6.9-4.96-10.34Z"/><path class="cls-31" d="M199.31,262.24l-.02,1.96c-3.38,1.24-4.78-1.61-6.41-3.41-5.68-6.22-12.27-11.65-16.43-19.55-2.25,1.85-1.92,3.96-1.77,5.78,.84,10.57-1.89,20.74-3.17,31.08-1,8.09-2.75,15.98-4.4,23.93-1.79,8.65-4.02,17.16-7.05,25.41-1.32,3.59-.72,5.57,2.42,7.32,10.01,5.59,19.71,11.72,30.36,16.11,7.83,3.23,15.38,7.12,23.34,10.07,1,.37,2.38,.62,2.06,2.28-1.05,.03-2.11,.07-3.16,.1-12.29-3.74-23.73-9.44-35.08-15.32-7.51-3.89-14.69-8.4-22.11-12.44-3.44-1.87-4.06-4.01-2.68-7.72,7.88-21.13,11.55-43.18,14.3-65.48,1.38-11.16,1.64-22.43,3.15-33.56,1.91-.2,2.21,1.21,2.56,2.13,4.54,11.67,12.86,20.43,21.83,28.72,.84,.77,1.51,1.73,2.26,2.59Z"/><path class="cls-12" d="M444.34,68.35c5.29-1.33,10.59-2.67,15.88-4,2.64-2.31,6.13-.86,9.02-2.05h0c12.85-2.66,25.74-4.44,38.93-2.97,4.93,.55,9.84,1.37,14.82,1.49,2.18,.05,4.3,.39,6.26,1.44,6.68,1.22,13.22,2.88,19.46,5.64,4.31,1.91,8.1,4.41,11,8.17,.68,.88,1.74,1.78,.89,3.07-.94,1.42-2.26,.96-3.58,.58-15.94-4.61-32.4-4.6-48.76-5.41-11.47-.57-22.69,1.9-34.02,3.04-.76,.52-1.5,.51-2.2-.11,.65-3.12,3.56-2.96,5.69-3.94,25.56-4.5,50.93-2.15,77.47,2.32-2.51-2.02-4.43-2.98-6.38-3.91-1.95-.93-4.04-1.54-6-2.48-7.63-3.61-15.96-4.29-24.12-5.43-4.72-.66-9.52-1.01-14.34-1.15-25.45-.74-49.61,5.05-73.25,13.77-.78,.29-1.54,.63-2.35,.8-1.13,.2-2.23,.14-3.23-.5-.9-2.61,1.38-2.92,2.8-3.57,5.11-2.31,10.53-3.68,16.01-4.79Z"/><path class="cls-26" d="M355.27,288.23c1.51-.25,3.64,.77,3.96-1.93,1.34-1.33,2.74-1.02,4.15-.14,5.54,.39,10.12,4.53,15.87,4.08,9.59,3.45,19.53,2.89,29.37,2.1,3.09-.25,6.31,0,9.36-.94,1.79-.14,3.55-.69,5.37-.55,2.07,.13,4.27-.3,6.02,1.31-.44,3.85-3.54,3.43-6.04,3.5-7.63,.22-15.28,.03-22.95,.45,7.76,.6,15.48,1.73,23.21,2.19,12.9,.76,25.85,.98,38.78-.02,2.7-.84,5.38-1.86,8.26-.79,.53,.25,.89,.66,1.08,1.22,.08,.58-.06,1.1-.42,1.57-5.26,2.52-10.91,2.06-16.48,2.06-11.29,.01-22.63,.58-33.84-.34-11.73-.97-23.43-2.69-35.03-5.19-6.73-1.45-13.4-3.34-20.22-4.34-2.37-.35-4.36-1.31-6.47-2.18-.91-1.49-3.76,.74-3.99-2.07Z"/><path class="cls-82" d="M150.11,304.12c.44,.07,.88,.14,1.32,.2-1.48,10.62-5.81,20.32-9.6,30.23-5.93,15.5-19.11,23.24-32.35,30.93-6.57,3.82-13.46,7.09-20.21,10.61-10.26,5.59-21.53,8.26-32.67,11.31-13.8,3.78-27.62,5.07-41.42-.05-1.53-.94-2.96-1.93-2-4.08l-.93-2.94c.39-.32,.84-.44,1.34-.34,3.59,2.27,6.13,6.27,10.92,6.57,6.46,.41,12.91,.7,19.34-.22,5.39-.93,10.6-2.63,15.88-3.97,22.65-6.09,43.62-15.73,62.92-29.12,8.12-5.63,13.7-12.83,16.72-22.19,1.06-3.29,1.88-6.73,3.98-9.62,1.82-4.38,3.05-8.94,4.38-13.47,.43-1.46,.24-3.4,2.37-3.85Z"/><path class="cls-61" d="M444.34,68.35c-4.88,2.94-10.61,3.68-15.73,6.02-1.19,.54-2.61,.65-3.36,1.94-2.47,3.17-6.16,4.27-9.69,5.56-1.44,.53-3.08,.44-3.77-1.37-.62-1.65,.25-2.95,1.51-3.88,2.55-1.89,5.47-3.15,8.34-4.45,19.3-8.73,39.24-15.51,60.22-18.73,6.02-.92,12.15-1.66,18.33-1.51,4.45,.11,8.92,.26,14.73-.33-6.21-5.01-10.59-10.31-15.8-14.77-5.42-4.64-11.19-8.85-17.12-12.82-1.3-.87-3.04-1.59-2.86-3.7,.38-.04,.75-.07,1.13-.11,7.89,3.65,14.71,8.96,20.95,14.8,5.88,5.51,12.18,10.7,17.02,17.28-.37,2.59-1.9,2.94-4.05,2.11-25.1,.09-49.61,3.48-73.38,13.03,1.03,1.3,2.42,.67,3.52,.93Z"/><path class="cls-28" d="M503.39,25.24c-.72-2.05-4.44-2.75-3.51-4.91,1.05-2.44,4.33-1.68,6.68-1.82,15.25-.93,29.19,2.87,41.65,11.82,1.13,1.31,3.91,1.59,2.69,4.35-2.28,.62-3.69-1.09-5.42-1.99-9.12-4.8-18.42-9.12-28.9-10-1.99-.17-4-.13-5.99-.06-.82,.03-1.81-.04-2.25,.77-.63,1.16,.41,1.82,1.12,2.44,8.56,7.46,16.42,15.59,23.51,24.47,1.57,1.97,3.84,2.44,6.19,2.84,8.99,1.53,17.43,4.47,24.71,10.14,1.9,1.48,4.42,2.7,3.62,5.89-.39,.44-.83,.5-1.32,.17-7.33-8.45-17.4-11.21-27.78-13.04-3.83-.68-6.59-2.1-9.08-5.23-7.63-9.6-15.61-18.92-25.94-25.84Z"/><path class="cls-20" d="M586.42,128.41c-6.05,9.25-15.16,14.86-24.74,19.36-20.88,9.81-43.21,14.39-66.15,14.14-21.66-.23-41.05-7.51-56.52-23.41-1.48-1.52-3.34-2.82-3.9-5.07,2.61-.96,3.59,1.41,5.2,2.51,13.9,13.53,30.27,21.17,49.89,22.13,26.34,1.29,51.22-3.65,74.76-15.59,4.54-2.3,8.08-5.82,12.09-8.76,3.38-.97,5.07-4.31,8.09-5.79,.5-.05,.93,.11,1.28,.47Z"/><path class="cls-97" d="M460.28,264.26c2.12-12.16,2.94-24.28-.58-36.39-1.86-6.39-.69-7.76,5.78-7.72,9.05,.06,17.91-3.4,26.98-1.89,14.08,2.34,25.45,9.09,32.74,21.78,.3,.53,.18,1.3,.25,1.96-.35,.48-.82,.71-1.4,.69-3.5-1.63-4.86-5.3-7.31-7.92-9.04-9.66-20.25-12.86-32.92-12.04-5.62,.37-11.22,1.1-16.88,.94-3.11-.09-4.07,1.11-3.18,4.3,1.24,4.45,1.56,9.11,2.58,13.64,1.62,7.18-1.79,14.03-2.19,21.12-.07,1.23-1.03,2.04-2.38,2.14-.57-.03-1.07-.25-1.48-.63Z"/><path class="cls-79" d="M586.42,128.41l-1-.09c-.38-.22-.63-.54-.72-.98-.32-1.56,1.85-2.95,.29-4.58-8.08-2.52-16.37-4.11-24.62-5.85-2.77-.59-4.41,.58-5.22,3.24-5.62,18.51-19.41,27.68-37.14,32.2-3.49,.89-6.79,2.79-10.6,2.29-8.25-.5-16.69,1.45-24.69-1.98-2.05-.88-4.7-1.23-4.46-4.44,21.01,8.48,40.39,3.43,58.79-7.54,8.69-5.18,13.55-13.62,15.79-23.35,.87-3.8,2.58-4.4,5.97-3.72,8.3,1.67,16.63,3.15,24.79,5.51,7.6,2.2,8.15,3.63,2.82,9.29Z"/><path class="cls-41" d="M479.06,348.32c.72,.3,1.44,.6,2.17,.9,2.67-.07,4.05,2.01,5.8,3.49,11.2,9.46,23.9,15.54,38.58,17.18,9.82,.35,19.55,.08,28.97-3.22,6.74-2.36,12.55-5.93,16.72-11.89,.93-1.33,1.82-2.86,3.85-2.68,.42,.08,.83,.17,1.25,.25-3.84,10.15-12.21,15.1-21.82,17.9-25.49,7.41-48.56,2.41-68.81-14.82-2.45-2.08-5.75-3.53-6.7-7.09Z"/><path class="cls-22" d="M478.26,148.23c3.48,3.91,8.27,4.7,13.04,4.99,5.64,.34,11.31,.1,16.97,.11-.62,2.77-2.96,2.23-4.78,2.28-4.97,.15-9.94,.1-14.9,.03-12.99-1.96-22.75-11.6-26.27-25.96q-2.2-9-11.45-7.11c-3.76,.76-7.4,1.88-11.05,3.02-5.39,1.68-5.38,1.63-2.04,5.95,1.06,1.37,2.8,2.61,1.46,4.75-1.81-.32-2.21-2.7-4.14-2.84-6.92-8.06-6.61-9.07,3.46-11.55,6.27-1.54,12.54-3.12,18.81-4.64,5.69-1.37,6.38-.9,6.79,4.86,.78,10.83,4.8,19.88,14.09,26.11Z"/><path class="cls-1" d="M266.31,282.12l-3.04,.14c-19.77-7.39-39.93-14.05-56.25-28.25-7.25-6.31-14.67-12.53-18.81-21.58-.21-1.68-1.76-3.09-1.04-4.96,2.43-.81,2.68,1.26,3.38,2.63,4.08,7.98,10.17,14.21,16.8,20.11,15.55,13.84,34.57,20.8,53.67,27.67,2.21,.8,5.16,.81,5.29,4.26Z"/><path class="cls-76" d="M187.34,227.26c.02,1.77,1.4,3.31,.87,5.17-8.24-12.17-7.1-28.11,2.77-40.28,2.85-3.51,6.02-6.68,9.48-9.55,3.39-2.81,1.05-4.91-.57-7.2-1.92-2.72-3.72-2.39-6.19-.4-6.7,5.4-12.08,11.84-16.28,19.3-.42-.04-.83-.09-1.25-.13-1.18-2.17,.25-3.85,1.2-5.49,3.86-6.71,9.75-11.61,15.4-16.68,1.95-1.75,4.41-2.3,6.83-.5,1.9,1.67,3.72,3.41,4.94,5.67,1.56,3.61,.41,6.07-2.65,8.56-7.73,6.31-13.33,14.16-15.63,24.1-.85,3.66-.76,7.21,.21,10.82,.51,1.9,1.26,3.81,1.01,5.86-.04,.25-.08,.5-.12,.75Z"/><path class="cls-95" d="M415.45,118.45c.38,6.3,4.09,11.09,7.4,16,4.44,6.58,9.35,12.78,16.28,17.01,2.05,1.88,4.11,3.76,6.16,5.64,3.07,2.36,6.52,4.11,9.77,6.19,1.93,3.04,6.03,2.41,8.28,4.9-2.02,1.97-4.34,1.46-6.46,.46-5.85-2.75-10.95-6.83-16.54-9.97-9.5-5.33-14.54-14.68-21.1-22.55-3.42-4.1-6-9.49-6.63-15.27,.02-1.48,.65-2.48,2.17-2.8,.22,.13,.45,.26,.67,.39Z"/><path class="cls-69" d="M285.27,221.3c-3.22-.72-5.41-3.15-7.66-5.16-6.13-5.45-14.06-3.7-21.01-5.75-7.82-2.31-15.95-3.51-23.73-6.04-1.18-.39-2.06-1.01-2.75-1.97,.42-.5,.91-.58,1.46-.24,4.63-.82,8.52,1.87,12.8,2.71,8.6,1.7,17.16,3.53,25.73,5.38,6.31,1.36,11.27,4.87,15.28,9.82,.33,.45,.29,.87-.1,1.26Z"/><path class="cls-4" d="M520.82,122.48c-3.16-.41-7.78,.14-8.87-5.04-.57-2.69,4.44-4.96,9.79-4.59,3.67,.25,7.68,.5,8.6,5.03,.52,2.54-3.79,4.63-9.52,4.61Z"/><path class="cls-81" d="M15.33,386.18c15.52,6.98,30.8,2.85,46.17-.79,9.56-2.27,18.34-6.75,27.78-9.3-3.92,4.56-9.7,5.79-14.93,7.43-4.31,1.35-9.04,1.86-13.28,3.49-14.4,5.53-28.96,5.28-43.73,2.22-.23-.06-.46-.12-.69-.17-.98-.71-1.99-1.41-1.31-2.88Z"/><path class="cls-71" d="M566.18,69.35l1.05-.08c2.8-.53,.61-1.9,.34-2.71-3.62-11.01-7.6-21.85-16.04-30.31-.47-.48-.61-1.15-.47-1.84-.95-1.36-1.9-2.72-2.85-4.08,1.8-.22,2.58,1.46,3.92,2.11,2.86,1.54,5.15,3.6,6.18,6.8,.72,1.53,1.2,3.23,2.92,4.03,4.11,8.27,7.76,16.69,10.11,25.68,1.05,4,.78,8.25,2.56,12.09,.54,1.15,.02,2.46-1.29,2.81-1.42,.38-2.23-.75-2.38-1.93-.56-4.46-2.32-8.5-4.05-12.57Z"/><path class="cls-88" d="M231.56,202.13c-.49,.08-.97,.16-1.46,.24-.94-.04-1.88-.09-2.82-.13-4-1.59-7.99-1.26-11.98,.09-8.26,5.82-5.88,19.43,.6,25.53,3.06,2.88,6.35,5.53,9.53,8.29-.7,.75-1.44,.71-2.22,.14-7.1-3.75-11.87-9.54-14.9-16.91-2.37-5.78,.02-14.83,5.02-18.48,4.59-3.36,13.63-2.74,18.22,1.24Z"/><path class="cls-40" d="M471.26,299.25c0-.33-.01-.66-.01-.99,2.57-2,5.65-2.74,8.72-3.38,12.58-2.64,24.98-5.66,35.41-13.81,1.05-.82,2.28-1.38,3.71-1.06,1.77,2.47-.83,3-1.88,4.21-4.19,3.46-9,5.86-13.89,8.11-8.82,3.42-17.85,6-27.25,7.21-1.61,.21-3.25,.56-4.81-.29Z"/><path class="cls-39" d="M517.21,284.22c.67-1.33,1.34-2.66,2.01-3.99-.04-1.29,.65-2.17,1.61-2.89,2.69-.88,3.42-3.07,3.7-5.56,.45-1.69,.93-3.35,2.17-4.67,2.21-4.55,.65-9.4,1.11-14.1,.16-1.71-.06-3.53,1.47-4.82,.31,.11,.77,.12,.91,.33,2.23,3.59,1.03,19.69-1.17,23.16-2.02,3.19-3.9,6.46-6.24,9.45-1.48,1.89-2.76,3.75-5.56,3.09Z"/><path class="cls-84" d="M285.27,221.3c.03-.42,.07-.84,.1-1.26,6.35,2.64,11.05,7.59,16.27,11.78,3.33,2.68,6.4,5.67,9.59,8.52,.59,.73,.64,1.44-.09,2.12-9.33-6.2-17.31-14.05-25.88-21.17Z"/><path class="cls-51" d="M311.43,274.17c7.57,1.04,14.42,4.42,21.54,6.86,3.41,1.17,6.94,1.92,10.3,3.21,.54,.47,.61,1.04,.38,1.68-.15,.14-.31,.28-.46,.42-3.16,.58-5.75-1.54-8.33-2.5-7.39-2.74-15.08-4.52-22.36-7.49-1.21-.49-2.28-1.33-3.42-2.01,.73-.74,1.53-.66,2.35-.18Z"/><path class="cls-61" d="M529.25,62.26c-8.18-.93-16.35-2.04-24.56-2.75-10.61-.91-21.06,1.03-31.54,2.3-1.31,.16-2.61,.33-3.92,.49,1.68-2.08,4.1-1.66,6.36-2.09,16.17-3.07,32.3-1.98,48.44,.04,1.95,.24,4.09-.3,5.2,2.01Z"/><path class="cls-35" d="M472.02,76.84c.74,.17,1.48,.33,2.21,.5-11.08,3.5-22.39,6.3-33.12,10.88-4.21,1.8-8.12,4.33-12.67,5.31-.12-.14-.23-.29-.35-.44,.26-2.24,2.21-2.78,3.78-3.53,11.07-5.31,22.54-9.58,34.39-12.81,1.93-.52,3.86-1.07,5.76,.1Z"/><path class="cls-16" d="M471.26,299.25c9.27-.5,18.01-3.43,26.81-6.01,1.75-.51,3.4-1.15,5.25-.9-.75,2.73-3.86,3.24-5.39,3.46-8.92,1.3-17.28,5.99-26.64,4.49,0-.35-.02-.69-.03-1.04Z"/><path class="cls-60" d="M423.17,292.18c-1.64,.04-3.28,.07-4.91,.11-3.36,.67-6.72,.85-10.06-.09,.22-1.08,.77-1.83,1.96-1.85,8.4-.17,16.72-.7,24.65-3.97,1.28-.53,2.96-.09,4.45-.1,.57,.65,.58,1.35,.22,2.09-.36,.37-.78,.63-1.26,.8-4.95,1.31-10.1,1.65-15.05,3.01Z"/><path class="cls-38" d="M345.34,277.17c-7.51-3.53-12.07-10.39-17.76-15.96-.54-.53-.27-1.9-.38-2.88,3.52,.78,4.55,4.4,7.06,6.42,3.59,2.91,6.06,7.2,10.22,9.7,.96,.57,.74,1.76,.87,2.72Z"/><path class="cls-21" d="M439.25,288.26c0-.66,0-1.33,.01-1.99,5.98-2.27,9.7-8,15.69-10.26,.5,.23,.84,.6,1.03,1.12-.87,5.67-11.57,12.78-16.73,11.13Z"/><path class="cls-54" d="M223.22,236.29c.74-.05,1.48-.09,2.22-.14,7.62,3.44,15.7,6.02,21.91,12.03-2.39,.73-4.13-.87-5.84-1.93-5.91-3.66-12.94-5.27-18.28-9.96Z"/><path class="cls-73" d="M271.27,258.28c8.35,2.46,16.58,5.22,23.95,10.03-5.85,.59-10.23-3.58-15.51-4.97-2.82-.74-6.62-.67-8.5-3.94-.32-.27-.41-.52-.29-.76,.12-.24,.24-.36,.35-.36Z"/><path class="cls-21" d="M408.2,292.19c3.35,.03,6.71,.06,10.06,.09-.71,.86-1.69,.99-2.7,.95-10.89-.36-21.82,1.01-32.67-.91-1.56-.28-2.93-.49-3.63-2.08,9.54,2.23,19.24,2.15,28.94,1.94Z"/><path class="cls-38" d="M311.15,242.47c.03-.71,.06-1.41,.09-2.12,5.14,6.15,12.72,10.13,15.96,17.97-6.1-4.52-11.25-10-16.04-15.85Z"/><path class="cls-29" d="M574.14,157.26c-.32,1.98,.57,5.33-2.69,4.65-2.57-.54-6.67-1.8-6.51-4.92,.13-2.52,3.8-4.12,6.54-4.4,3.47-.36,2.36,2.75,2.66,4.67Z"/><path class="cls-23" d="M311.43,274.17c-.78,.06-1.57,.12-2.35,.18-5.25-.56-9.97-2.33-13.82-6.08,6.17-.17,11.12,3,16.17,5.9Z"/><path class="cls-81" d="M21.33,397.22c-5.8-1.18-8.52-4.18-9.01-9.98l.04-.04c2.26-.81,3.33,1.31,4.97,2.03h0c-.42,3.55,3.33,5,4,7.99Z"/><path class="cls-68" d="M271.27,258.28c-.02,.37-.04,.74-.06,1.12-5.68-1.62-11.18-3.63-16.05-7.09,.73-.69,1.5-.6,2.3-.13,5.31,.43,9.37,3.71,13.81,6.11Z"/><path class="cls-21" d="M460.28,264.26l1.13,.07c1.77,5.2-1.04,10.85-6.01,12.08-.15-.14-.3-.27-.45-.4-.45-4.93,4.07-7.59,5.33-11.74Z"/><path class="cls-59" d="M363.38,286.16c-1.38,.05-2.77,.09-4.15,.14-2.33-2.46-7.09-1.65-8.03-5.98,4.7,.62,8.43,3.24,12.18,5.84Z"/><path class="cls-97" d="M529.27,248.19l-.09,5.1c-3.31-2.11-5.04-6.65-4.14-10.86,.14-.14,.28-.27,.41-.41,2.41,1.36,3.6,3.47,3.81,6.18Z"/><path class="cls-53" d="M257.46,252.17c-.76,.04-1.53,.09-2.29,.13-3.12-.39-6.05-1.15-7.82-4.12,4.2-.78,7.09,1.77,10.11,3.98Z"/><path class="cls-51" d="M355.27,288.23c.84,1.63,3.16,.4,3.99,2.07-5.82,.57-10.52-3.43-16.07-3.95l.25-.28c1.65-1.09,3.29-.97,4.91,.06,2.45,.24,4.71,1.08,6.92,2.1Z"/><path class="cls-57" d="M455.06,163.28c-4.03-.84-7.17-3.08-9.77-6.19,3.74,.92,6.55,3.62,9.93,5.21-.07,.32-.13,.65-.16,.98Z"/><path class="cls-81" d="M514.2,54.39c1.85,.26,2.91-1,4.05-2.11,.89,1.07,2.34,1.77,2.41,3.61-2.52,.81-4.49-.32-6.46-1.5Z"/><path class="cls-61" d="M469.24,62.3c-3.01,.68-6.01,1.37-9.02,2.05,2.34-3.64,5.98-1.51,9.02-2.05Z"/><path class="cls-15" d="M413.27,120.31c2.02,4.75,4,9.52,6.06,14.25,.97,2.23,3.38,3.06,4.71,5.3,7.83,13.12,20.7,20.45,33.41,27.86,1.8,1.05,3.9,.48,5.88,.47,.29,.06,.59,.12,.88,.18,2.13,1.01,4.62,.79,6.73,1.92,10.04,4,20.59,3.63,31.1,3.58,10.73-.92,21.41-2.24,32-4.13,3.86-.69,7.58-2.18,11.38-3.21,4.52-1.22,8.11-.14,11.79,1.85,2.62,1.41,5.18,2.93,8.03,3.86h0c3.59,3.03,8.72,4.38,10.42,9.5-6.74,5.95-14.43,10.08-23.1,12.58-11.98,3.46-24.15,5.98-36.53,7.3-2.47,.26-1.54,1.76-2.01,2.82-30.44,2.33-60.82,5.7-91.4,5.33-1.14-.01-2.35-.29-3.37,.51l-1.97,.02c-9.57,.51-19.13,1.23-28.67-.43-1.96-.34-3.98-.13-5.97-.1-17.76,.22-35.32-2.06-52.95-3.78-10.67-1.04-21.33-2.15-31.99-3.31-9.32-1.01-18.6-2.59-27.77-4.51-3.87-.81-7.79-1.09-11.64-1.89-9.15-1.89-18.38-3.48-26.99-7.34-.54-.39-.92-1.23-1.53-1.24-8.06-.15-16.28-4.48-24.13,.94-.83,.58-1.9,.57-2.89,.2-2.01-1.72-.25-2.62,.66-3.96,1.68-2.46,3.27-5.16-.02-7.71-1.35-1.65-2.71-3.31-4.06-4.96-2.63-3.11-5.75-3.73-8.81-1.12-4.05,3.46-9.07,6.03-11.07,11.58-.5,1.4-1.93,2.81-3.95,1.61-.07-1.67-.14-3.34-.21-5.01-.94-1.89-.48-3.92-.44-5.86,.27-10.94-.46-21.85-.58-32.78-.04-3.06,.59-5.67,3.4-7.16,2.42-1.28,2.73-4.11,4.63-5.7,.66-.86,1.37-1.69,2.31-2.26,2.03-.73,4.36-1.93,5.43,1.06,.86,2.41,.97,5.27-1.8,6.57-2.91,1.36-2.52,3.12-2,5.65,1.11,5.44,3.41,10.75,1.55,16.16,2.04,.85,2.68-.12,3.39-.7,2.43-1.98,4.24-1.12,5.85,1.11,1.27,1.77,1.75,3.98,3.15,5.65,1.17,1.41,2.8,2.26,4.29,.77,1.49-1.47,.18-2.84-1.03-3.72-3.51-2.53-6.15-6.09-10.04-8.17-1.99-1.06-3.4-2.79-3.65-5.09-.29-2.65,.55-5.06,2.89-6.48,3.18-1.92,4.12,1.79,6.18,2.75,6.54,7.61,14.11,14.12,21.91,20.37,1.84,1.58,3.44,3.5,6.03,3.94,4.14,1.74,8.02,4,12.05,5.95,4.27,2.9,9.16,4.05,14.13,5.01,.49,.15,.95,.35,1.4,.59,4.3,3.47,9.45,1.33,14.15,2.12,.83,.11,1.61,.36,2.36,.73,1.59,1.17,3.45,1.07,5.28,1.07,7.48,.02,15.14,1,22.4-.26,8.13-1.42,16.49-.7,24.48-3.22,3.41-1.07,7.31-.29,10.51-2.44,.48-.2,.97-.36,1.47-.52,8-1.28,15.25-4.86,22.78-7.6,1.48-.54,2.13-2.01,3.25-2.95,9.78-5.04,18.04-11.76,23.74-21.35,1.62-2.72,3.27-5.4,3.54-8.67,.75-2.07,.48-4.49,2.14-6.24,2.53-3.73,2.09-7.46-.01-11.19-4.81-12.9-12.23-23.9-23.34-32.24-1.35-1.01-2.34-2.37-2.8-4.04-3.59-13.08-13.34-19.76-25.24-24-12.8-4.56-26.25-5.86-39.67-6.11-6.33-.12-12.81,.14-19.19,.8-5.76-1.92-11.77-2.78-17.52-.88-9.69,3.19-19.42,6.43-28.36,11.52-1.45,.83-2.85,1.71-4.61,1.67-3.32-1.28-6.15-.95-8.24,2.3-.84,1.32-2.34,1.8-3.67,2.49-2.38,1.24-4.5,2.78-6.07,5.05-5.12,7.37-5.56,7.45-13.12,2.73-.3,3.04,2.43,4.36,3.25,6.56,1.64,4.38,3.17,8.58,.1,13.21-3.51,5.29-4.92,11.51-6.39,17.63-.48,1.99-1.24,3.84-2.72,5.25-2.09,2-3.81,2.02-4.59-1.22,.01-5.19,1.61-10.13,2.8-15.07,.98-4.06,.29-7.06-2.66-9.75-3.08-.25-4.82,.26-5.87,4.08-2.2,7.98-4.24,16.18-9.76,23.07-.04-6.41-1.15-12.69-1.32-19-.11-4.18-.67-8.27-1.18-12.38-.29-2.32-1.02-4.93-4.06-4.8-3.18,.14-4.01,2.56-3.84,5.34,.78,12.79,1.1,25.59,1.01,38.4-.12,15.99,.36,32-.16,47.98-.64,19.74-2.29,39.43-3.59,59.14-1.18,17.92-3.53,35.63-6.28,53.32-.86,5.57-2.12,11.08-3.19,16.61-1.86,6.07-2.97,12.38-5.76,18.16-.69-.61-.86-1.35-.59-2.22-.69,.4-.47,1.23-.86,1.79-.66,.94-1.31,1.87-1.59,3.06-2.4,9.91-9.11,16.51-16.21,23.47-7.64,7.5-17.21,11.09-25.99,16.07-11.7,6.63-24.27,11.86-37.18,16.03-.82,.27-4.9-.16-1.56,2.84-5.21,1.84-10.48,3.44-16.01,4.01-7.02,.66-14.05,.66-21.07,0-4.8-.29-7.35-3.72-9.94-7.1-5.54-9.55-7.78-19.49-5.82-30.7,1.29-7.36,3.38-14.37,5.55-21.43,2.42-5.02,4.69-10.09,5.18-15.74,.12-.75,.18-1.51,.49-2.22,1.91-2.34,.95-5.24,1.52-7.85,.11-.75,.18-1.51,.5-2.21,1.73-2.22,1.13-4.83,1.21-7.32,.48-2.17,.26-4.39,.55-6.58,2.22-4.61,1.25-9.53,1.36-14.34-.06-5.69-.07-11.37,0-17.05,.11-5.14,.45-10.31-1.37-15.28-.27-1.64-.1-3.31-.25-4.96-.74-3.01,.56-6.36-1.54-9.15-.3-.77-.35-1.58-.4-2.39-.52-4.34-.08-8.81-1.87-12.97-.16-1.46-.07-2.93-.19-4.39-.38-1.81-.32-3.64-.34-5.47-.1-11.06-1.26-22.14-1.49-33.1-.27-13.24,1.72-26.64,1.66-40.03,.08-.56,.24-1.1,.46-1.62,2.68-3.67,.77-8.04,1.77-11.97,.11-.48,.28-.94,.5-1.37,1.88-2.14,.97-4.91,1.65-7.33,.13-.46,.31-.9,.53-1.32,2.7-6.8,4.9-13.79,7.49-20.64,.16-.48,.39-.92,.68-1.34,7.95-11.51,16.65-22.3,27.52-31.3,5.36-4.43,9.89-9.94,16.05-13.33,13.1-7.19,26.31-13.9,41.13-17.45,10.56-2.53,21.06-2.9,31.51-2.13,9.71,.72,19.19,3.72,27.81,8.74,2.44,1.42,4.97,2.71,7.73,3.42,3.6,1.61,6.7,4.02,9.84,6.35,1.77,1.3,3.62,1.55,5.54,.36,10.97-6.77,22.69-11.99,34.61-16.83,23.05-7.36,46.71-10,70.74-8.26,19.85,1.44,38.64,7.39,56.82,15.4,7.32,3.23,14.17,7.21,20.89,11.48,2.45,.47,5.87,3.51,5.95-2.27-4.29-5.4-10.46-8.08-16.31-11.2-.58-.41-1.17-.83-1.75-1.24-2.65-2.09-1.49-3.2,1.02-3.95,4.03-.27,7.8-1.72,11.35-3.34,7.24-3.32,14.73-6.04,22.51-7.11,7.32-1.01,14.86-.64,22.28-1.06,11.18-.63,21.61,2.58,32.1,5.45,3.44,.94,6.73,2.73,10.2,3.82,.72,.25,1.48,.33,2.19,.6,3.42,4,8.13,5.83,12.88,7.59,7.62,5.17,15.13,10.49,21.72,16.96,1.01,.99,2.47,1.83,2.06,3.67-3.83,2.53-8.25,3.83-12.61,3.52-13.36-.95-25.91,2.33-38.38,6.31-1.42,.45-2.74,1.54-4.2,1.53-7.7-.08-14.19,3.72-20.99,6.43-6.61,2.63-12.74,6.32-19.28,9.17-2.98,1.3-4.3,3.68-2.12,6.85,.3,.35,.56,.74,.81,1.12,1.41,2.69,3.41,2.85,5.81,1.34,.37-.26,.77-.46,1.19-.62,3.5-.53,6.16-3.07,9.5-4,.51-.11,1.01-.19,1.53-.26,16.54-6.95,33.89-11.08,51.51-13.71,18.31-2.74,36.61-1.12,54.63,3,2.73,.62,5.65,.4,8.21,1.79,5.72,1.59,11.2,3.58,15.85,9.69-27.91-5.8-54.75-7.37-81.77-3.65-1.89,.42-3.77,1.2-5.74,.36-.72-2.63,1.42-2.49,2.81-2.63,10.74-1.09,21.42-3.28,33.06-1.53-9.42-1.89-18.16,.31-26.84-.79-1.15-.14-2.29,.3-3.43,.57-14.53,3.52-28.41,9.03-42.51,13.85-1.91,.65-3.56,1.77-5.25,2.84-3.79,2.38-7.25,5.29-11.55,6.86-2.8,1.03-3.95,3.01-1.94,5.84,.48,4.17,3.04,4.32,6.04,2.88,10.18-4.87,21.02-8.16,31.32-12.58,14.67-6.29,29.93-7.44,45.25-7.77,8.64-.19,17.64-.55,26.21,2.1,.96,.3,1.95,.44,2.95,.45,16.8,.03,32.2,5.37,47.26,12.17,3.93,1.78,6.54,5.04,9.83,7.51,.82,.62,2.08,1.5,1.1,2.82-.71,.95-1.82,.46-2.77,.19-7.35-2.14-14.9-3.34-22.39-4.83-3.23-.64-6.67-.32-9.69-2.01-1.16-1.77-2.62-3.23-4.9-2.34-8.65,3.39-16.98-.66-25.44-1.16-3.43-.2-6.88-.89-10.32-.46-6.94,.86-13.9,.91-20.87,1.06-4.13,.09-8.29,.67-12.1,2.56-.75,.37-1.56,.78-2.37,.64-11.6-2.08-21.94,2.98-32.83,5.28-7.43,1.57-14.53,4.35-22.08,5.41-6.52,.91-7.89,2.89-6.83,8.65Z"/><path class="cls-93" d="M23.3,234.25c.02,1.64,.05,3.28,.07,4.93,1.32,4.94,1.12,10.07,1.95,15.08,0,6,0,12,0,18-1.15,4.63-.22,9.55-1.94,14.1-.03,2.3-.05,4.6-.08,6.9-1.19,2.21-.3,4.99-1.95,7.06-.02,.64-.03,1.29-.05,1.93-1.08,2.58,.07,5.7-1.96,8.05l-.04,1.95c-1.42,5.4-3.39,10.63-4.99,15.98-1.65,6.89-3.73,13.65-5.33,20.56-2.49,10.76,.72,19.95,4.26,29.45,.22,.59,.07,1.31,.09,1.97-.36,.03-.72,.07-1.09,.1-7.92-10.18-8.01-21.84-6.18-33.75,1.6-10.38,6.1-19.93,9.09-29.93,4.06-13.61,6.31-27.47,7.14-41.6,1.15-19.7-1.54-39.07-4.16-58.56-3.69-27.38-5.09-54.93-2.18-82.58,1.65-15.6,3.9-30.97,9.93-45.55,5.96-14.42,15.74-26.12,26.79-36.85,.68-.66,1.68-.97,2.53-1.45,1.58,3.21-1.29,4.49-2.91,5.97-8.38,7.66-14.89,16.78-20.95,26.28l-.02,.02c-3.15,7.16-5.44,14.62-7.98,22h0c-1.48,2.45-.21,5.6-2.03,7.98h0c-1.4,4.22,.02,8.88-1.99,13.01h0c-.96,4.88-1.13,9.91-.87,14.78,.5,9.51-3.04,18.84-1.52,28.21,2.04,12.62,.67,25.38,2.38,37.97l.03,3.94c2.13,4.13,.85,8.77,1.95,13.05l.06,1.92c1.79,2.78,.71,6.17,1.93,9.08Z"/><path class="cls-9" d="M382.21,39.33c-4.81-.6-7.69-4.64-11.79-6.64-8.12-3.97-16.23-7.77-24.87-10.49-4.61-1.46-9.13-3.14-13.83-4.4-9.8-2.61-19.59-5.21-29.79-5.47-6.81-.17-13.65,.37-20.42-.16-8.74-.69-17.3,1.16-25.57,2.72-6.47,1.22-13.38,2.48-19.69,5.17-1.14,.49-2.62,.19-3.95,.26-11.87,4.29-23.49,9.08-33.98,16.28-1.91,1.31-4.11,.83-6.1-.25-3.33-1.49-6.12-3.79-8.99-5.97-2.49-.86-4.68-2.34-7.08-3.39-1.25-.55-1.78-1.47-.84-2.76,6.16,1.39,10.91,5.41,15.88,8.87,2.57,1.79,4.25,2.06,7.01,.25,19.83-13.03,42.17-19.13,65.27-22.93,19.75-3.25,39.42-2.37,58.97,1.5,20.94,4.15,40.01,12.99,58.29,23.73,.14,.08,.29,.16,.43,.25,1.49,1.02,3.39,2.7,4.65,.48,1.25-2.21-1.4-2.96-2.8-3.92-3.96-2.72-7.98-5.35-11.98-8.01,6.81,1.91,12.43,5.71,17.25,10.79,.27,4.59-.29,4.96-6.07,4.09Z"/><path class="cls-49" d="M175.32,24.23c1.46,3.57,5.85,3.37,7.92,6.15-4.43,.18-7.83-2.63-11.35-4.5-13.32-7.06-27.58-8.37-42.16-7.48-13.21,.81-25.59,5.16-37.5,10.68-6.67,3.09-13.43,6.28-19.42,10.47-6.12,4.28-11.29,9.9-16.97,14.81-5.52,4.77-10.25,10.25-14.91,15.81-3.31,3.95-5.36,8.89-9.57,12.13,3.58-8.68,9.32-15.82,15.75-22.53,2.91-3.04,6.71-5.41,8.11-9.72,6.66-8.01,15.4-13.41,24.16-18.65,16.45-9.83,34.25-15.88,53.47-16.58,14.86-.54,29.37,1.51,42.47,9.41Z"/><path class="cls-42" d="M507.17,45.38c-6.7-7.97-15.5-13.31-23.94-19.11-3.54-3.4-8.99-3.86-12.12-7.88-.62-.04-1.25-.08-1.87-.13-10.77-5.39-22.26-7.88-34.13-9.69-10.21-1.56-20.13,.42-30.17,.54-6.23,.07-12.61,2.61-18.44,5.11-5.35,2.29-11.02,3.58-16.24,6.1-2.46,.24-1.58,1.61-.98,2.89-1.85,.25-2.92-.68-3.08-2.41-.13-1.4,1.08-1.85,2.18-2.36,35.2-16.39,70.43-19.41,105.74-.31,1.6,.87,3.35,1.46,5.03,2.19,12.33,8.22,23.8,17.49,34.22,28.06,1.14,1.15,3.18,2.04,2.48,3.9-.75,2-2.93,1.03-4.45,.97-34.59-1.43-66.24,9.06-96.85,23.8-1.45,.7-2.9,1.64-1.93,3.37,.88,1.57,2.39,.5,3.55,0,3.04-1.32,6.05-2.73,9.07-4.1,1,0,2-.02,2.99-.03,.6,1.14-.43,1.46-1,2.01h0c-3.64,.54-6.5,3.02-9.96,4l-.04,.03c-2.7,2.16-5.08,2.09-7-1.03l-.18-.04c-1.47-3.57,.91-5.43,3.45-6.69,16.84-8.36,34.22-15.29,52.57-19.65,14.1-3.35,28.3-5.63,43.01-4.91,.21-2.13-1.72-3.02-1.92-4.61Z"/><path class="cls-47" d="M526.25,15.26c2.18,1.28,4.37,2.55,7.81,4.57-6.5,.1-10.94-3.25-17.37-2.37,3.78-3.15,6.86-1.67,9.58-2.19h-.02Z"/><path class="cls-47" d="M558.31,39.24c-2.06-2.27-4.12-4.54-6.18-6.81,.4-.49,.83-1.42,1.2-1.4,1.8,.1,5.26,5.97,4.98,8.2Z"/><path class="cls-47" d="M17.33,389.22c-1.66-.68-3.31-1.35-4.97-2.03-.52-1.48-2.33-3.23,.82-3.94,.37,1.23,.99,2.27,2.15,2.92,.67,1.02,1.33,2.03,2,3.05Z"/><path class="cls-69" d="M215.3,202.33c3.97-2.53,7.96-3.34,11.98-.09-3.99,.03-7.98,.06-11.98,.09Z"/><path class="cls-26" d="M348.35,286.13c-1.64-.02-3.28-.04-4.91-.06-.05-.61-.11-1.22-.17-1.83,1.78,.38,4.25-1.06,5.08,1.89Z"/><path class="cls-15" d="M218.23,363.23c-19.47-7.87-38.66-16.33-56.55-27.43-3.03-1.88-6.06-2.68-3.09-8.43,3.56-6.88,5.1-15.09,6.75-22.97,2.58-12.28,4.09-24.73,6.4-37.01,1.43-7.63,1.08-15.06,1.56-22.57,.17-2.6,.27-4.93,3.08-6.07,6.08,9.95,13.67,18.44,22.91,25.45l.06,.06c1.99,1.66,3.68,3.66,5.94,5,3.34,2.34,6.69,4.67,10.03,7.01,2.8,1.02,5.32,2.62,7.97,3.96,4.79,1.67,8.72,5.3,13.89,6.09,3.39,1.24,6.57,3.02,10.1,3.9l.05,.03c1.6,1.71,4.22,.62,5.89,2.15,7.56,4.1,15.94,6.02,23.95,8.92,4.99,1.81,10,3.53,15.11,4.97,6.57,2.53,13.17,4.93,19.96,6.89,12.95,3.74,25.97,7.39,39.04,10.53,11.18,2.68,22.63,4.75,34,6.89,5.64,1.06,11.78,.24,17.05,3.34,.52,.31,1.3,.25,1.96,.26,13.89,.12,27.63,3.2,41.6,2.19,3.08-.22,6.24,.59,9.36,.93-3.37,4.08-7.32,7.66-12,9.92-5.16,2.49-9.85,6.25-15.98,6.61-2.94,.17-4.45,3.17-7.11,4.33-5.08,2.22-10.38,3.43-15.72,4.53-6.59,1.36-12.2,5.19-18.59,7.04-10.24,2.97-20.92,3.65-31.28,5.93-9.11,2.01-18.46,1.64-27.61,3.59-6.73,1.44-13.84-1.15-20.82,.33-1.93,.41-3.94,.44-5.76,1.36-9.95,.29-19.77-1.1-29.45-2.97-11.13-2.16-22.4-4.03-33.12-7.88-6.51-2.34-13.34-3.73-19.57-6.86Z"/><path class="cls-91" d="M300.37,380.95c4.82-4.77,11.15-3.32,16.75-3.31,4.93,.01,9.78,1.33,14.55-1,.84-.41,1.96-.46,2.92-.39,9.18,.69,17.93-2.22,26.9-3.23,8.62-.98,17-3.16,25.51-4.74,2.79-.52,4.6-2.48,6.92-3.61,8.31-4.03,17.92-3.64,26.04-8.13,1.39-.77,3.24-.56,3.45-2.83,.11-1.19,1.22-1.49,2.28-1.44,8.16,.37,14.1-4.97,20.55-8.53,3.08-1.69,5.42-5.05,9-6.45l.05-.03c3.06-.44,6.21-1.78,8.94,.94-12.6,9.05-26.47,15.73-40.68,21.77-20.83,8.87-42.64,14.38-64.88,18.02-13.38,2.19-26.95,3.29-40.57,3.17-5.91-.05-11.85,1.64-17.74-.21Z"/><path class="cls-19" d="M292.28,306.28c-5.64,.17-10.48-2.09-15.11-4.97,5.38,.62,10.49,2.03,15.11,4.97Z"/><path class="cls-15" d="M464.23,338.21c-2.85-1.59-5.94-.78-8.94-.94,4.39-.88,8.79-1.76,13.62-2.73-.67,2.91-2.71,3.24-4.68,3.67Z"/><path class="cls-31" d="M247.27,290.21c-4,.33-7.02-1.87-10.1-3.9,3.75,.32,7.04,1.8,10.1,3.9Z"/><path class="cls-31" d="M205.29,269.26c-2.97-.49-4.89-2.23-5.94-5,2.96,.51,4.35,2.86,5.94,5Z"/><path class="cls-31" d="M223.28,280.22c-3.31,0-5.47-2.33-7.97-3.96,3.23,.17,5.94,1.37,7.97,3.96Z"/><path class="cls-31" d="M253.22,292.39c-1.9-.9-4.98,1.45-5.89-2.15,2.23,0,4.47-.05,5.89,2.15Z"/><path class="cls-55" d="M266.31,282.12c-4.58-4.28-10.86-4.52-16.3-6.7-16.46-6.6-32.65-13.73-45.71-26.04-6.16-5.81-12.72-11.7-15.29-20.39-.2-.68-1.09-1.16-1.67-1.74l-.03-.04c-2.46-9.44-2.55-18.61,2.68-27.33,1.27-2.12,2.49-3.93,5.25-3.83,1.98,3.74,1.09,7.71,.85,11.6-.26,4.21-.78,8.41,.2,12.6,3.44,10.54,9.98,18.71,19.03,24.97,10.92,7.27,22.65,12.99,34.73,18,2.41,1,4.63,2.51,7.26,2.98h.03c7.24,4.9,15.6,7.4,23.5,10.86,2.25,.99,4.76,1.35,6.83,2.79,16.53,8.44,33.89,14.52,52.02,18.42,3.86,.32,7.31,2.12,10.92,3.26,11.51,3.64,23.37,5.69,35.08,8.44,5.91,1.72,12.05,2.02,18.07,3.07,13.06,2.27,26.28,2.8,39.49,2.65,13.91-.16,27.72-1.19,41.43-4.21,5.96-1.31,11.79-3.23,17.83-4.13,.56,.05,1.08,.23,1.55,.52,.99,2.01-.57,2.79-1.88,3.3-3.25,1.27-6.31,3.25-9.69,3.88-8.74,1.63-17.59,2.63-26.4,3.88,3.24-.12,6.47-.18,9.72-.89,1.87-.41,4.01-.44,5.57,1.27-8.24,1.92-16.67,2.66-25.05,2.73-31.99,.28-63.43-4.14-94.56-11.35-17.43-4.04-34.79-8.33-51.87-13.56-14.68-4.5-29.43-8.89-43.57-15Z"/><path class="cls-37" d="M514.25,203.28c-1.09-.21-2.33,.36-3.3-.66,.7-1.59,2.3-2.24,3.64-2.2,9.19,.27,17.67-3.59,26.7-4.36,4.16-.35,8.17-2.33,12.27-3.45,8.02-2.2,14.63-7.09,21.65-11.22,1.13-.88,1.41,.29,1.96,.81,.6,3.55-1.45,5.46-4.2,7.09-8.62,5.11-17.94,8.19-27.74,9.99-6.98,1.42-13.99,2.63-20.99,3.92l-.05,.02c-3.3,.86-6.61,.81-9.92,.05Z"/><path class="cls-32" d="M196.29,220.25c-.03,.16,0,.38-.1,.48-.17,.18-.41,.29-.62,.43-.09-2.26-.24-4.53-.26-6.79-.04-6.05-.02-12.09-.02-18.14,.16-3.81,3.13-7.2,6.97-7.96,3.66,.31,5.7-3.43,9.51-3.5,3.45-.07,6.63-.91,10.01,.94,1.7,.93,4.19,.54,6.33,.53,1.93,0,3.29,.41,3.18,2.69-.8,.2-1.54,.19-2.08-.56-3.5-1.27-7.12-.37-10.68-.54-17.04,4.33-23.8,13.72-22.25,32.42Z"/><path class="cls-57" d="M565.25,172.23c-2.9,.33-5.42-.15-7.75-2.28-5.45-4.97-12.37-3.1-17.48-.92-5.68,2.43-11.48,3-17.12,3.79-6.82,.96-13.73,1.86-20.65,2.37-1.73-1.56-3.69-.53-5.58-.6-3.91-.14-8.27,1.53-11.43-2.36,15.15,.77,30.17-.57,45.08-3.11,4.23-.72,8.44-1.85,12.49-3.3,9.11-3.25,15.91,.96,22.45,6.4Z"/><path class="cls-57" d="M258.29,196.27c8.07-.51,15.67,2.33,23.5,3.46,11.61,1.67,23.22,3.28,34.88,4.49,16.76,1.74,33.52,3.79,50.33,4.8,16.72,1.01,33.51,.89,50.27,1.27-9.05,1.71-18.17,.8-27.25,.51-3.3-.1-6.63-.41-9.94-.42-20.46-.1-40.7-2.87-61.02-4.83-15.7-1.52-31.31-3.52-46.81-6.33-4.68-.85-9.31-1.96-13.97-2.95Z"/><path class="cls-57" d="M514.25,203.28c3.31-.02,6.61-.04,9.92-.05-3.81,1.98-8.07,1.46-12.08,1.85-18.97,1.84-37.98,3.15-57,4.42-11.97,.8-23.89,.63-35.84,.78,.99-1.23,2.39-1.02,3.69-.96,17.59,.8,35.04-1.69,52.57-2.21,12.36-.37,24.68-1.92,37.01-2.98,.6-.05,1.16-.55,1.73-.84Z"/><path class="cls-48" d="M257.3,266.2c-5.48-.28-10.51-2.61-15.11-4.96-7.14-3.64-14.28-7.35-21.27-11.32-2.1-1.19-4.57-2.15-5.6-4.7,13.99,6.99,27.99,13.98,41.98,20.98Z"/><path class="cls-48" d="M287.25,280.3c-4.04-1.34-8.19-2.45-12.11-4.09-5.38-2.25-10.6-4.88-15.87-7.39-1.06-.5-2.06-1.17-1.94-2.61,8.17,3.35,16.36,6.65,24.49,10.08,3.02,1.28,5.9,2.9,9.24,3.22,.08,.26,.1,.51,.08,.78-1.3,.98-2.6,.58-3.9,0Z"/><path class="cls-95" d="M485.23,172.24c4.03,2.13,8.15,2.56,12.63,1.43,1.22-.31,4.23-2.51,4.38,1.53-9.72,.61-19.28-.52-28.74-2.7-1.39-.32-3.1-.13-3.35-2.19,1.36-.81,2.73-.74,4.1-.06,3.52,1.4,7.2,1.94,10.97,1.99Z"/><path class="cls-57" d="M577.16,182.21c-.65-.27-1.3-.54-1.96-.81-2.27-4.2-7.99-4.64-9.97-9.16,5.56,1.43,9.47,4.83,11.92,9.98Z"/><path class="cls-57" d="M524.22,203.2c6.76-2.58,13.9-3.13,20.99-3.92-6.82,2.24-13.76,3.89-20.99,3.92Z"/><path class="cls-57" d="M474.26,170.25c-1.37,.02-2.74,.04-4.1,.06-2.22,.09-4.33-.16-5.93-1.95,3.58-.6,6.78,.77,10.03,1.89Z"/><path class="cls-15" d="M218.54,187.83c3.6-.65,7.21-1.48,10.68,.54-3.56-.18-7.12-.36-10.68-.54Z"/><path class="cls-15" d="M525.35,370.94c-10-.57-19.06-4.11-27.61-9.01-6.05-3.47-11.5-7.84-16.51-12.72-1.14-4.17,2.95-5.35,4.88-6.4,4.99-2.74,9.49-6.09,13.85-9.58,5.39-4.31,12.21-4.46,18.18-7.09,8.99-3.95,17.63-8.34,25.88-13.71,7.37-4.8,12.67-11.43,17.64-18.31,2.61-3.61,3.81-8.27,5.49-12.51,.41-1.03,.08-2.58,1.6-2.65,1.11-.05,1.55,1.21,1.8,2.14,4.22,15.51,9.82,30.74,9.58,47.14-.08,5.46-1.35,10.75-2.87,15.97-3.69,7.54-9.78,12.83-16.47,17.57-1.25,.89-2.59,1.51-4.11,1.66-5.14,.5-9.66,2.45-13.39,5.99-1.41,1.34-2.95,1.2-4.6,1.3-4.46,.27-8.93-.64-13.37,.21Z"/><path class="cls-72" d="M564.98,244.32c-3.39-5.36-4.27-11.61-7.34-17.06-1.96-3.48-4.9-6.05-6.86-9.47-1.66-2.9-.89-4.5,1.7-4.29,5.17,.43,8.34-3.51,13.01-4.89,.08,11.96-2.9,23.78-.51,35.71Z"/><path class="cls-3" d="M525.35,370.94c3.82-3.12,7.99,.11,12-.61,2.29-.41,4.21-.44,6.01-2.48,2.02-2.29,4.7-4.19,7.99-4.64,11.25-1.54,18.02-9.11,23.95-17.78,.54-.79,1.14-1.1,1.98-1.21-.71,2.62-1.43,5.24-2.14,7.86-4.49,6.42-9.72,12.09-17.21,14.94-10.5,4-21.43,5.1-32.59,3.92Z"/><path class="cls-10" d="M175.5,184.27c1.47-.08,2.94-.92,3.11-2.11,1.01-7.17,8.28-8.56,12.07-13.16,2.41-2.92,8.08-.44,8.65,3.2-1.93-1.22-4.01-1.11-5.51,.36-6.7,6.52-14.56,12.13-17.65,21.61-1.18,.6-1.69,.4-1.82-1.08-.27-3.05,.61-5.9,1.16-8.81Z"/><path class="cls-25" d="M185.3,126.28c-.67,.32-1.35,.64-2.02,.96-.56-.65-.54-1.3,0-1.96,1.3-5.54,4.33-10.52,5.16-16.23,.81-5.58,2.81-11.14-.09-16.69,4.39,2.23,5.53,5.89,3.79,10.19-1.91,4.68-2.25,9.76-2.84,14.75,0,3.59,.07,7.21-3.99,8.99Z"/><path class="cls-76" d="M183.28,125.28c0,.65,0,1.31,0,1.96-1.79,3.13-3.27,6.48-6.44,8.59-2.04,1.35-1.56,3.51-1.56,5.47-.01,12.66,0,25.32,0,37.97-1.53-14.13-1.5-28.32-1.88-42.5-.04-1.62,1.33-2.79,2.57-3.5,3.31-1.92,4.71-5.48,7.31-7.99Z"/><path class="cls-63" d="M504.29,308.31c-.35-.02-.71-.04-1.06-.07-.33-2.65,1.83-2.76,3.47-3.34,12.58-4.47,23.1-12.06,30.26-23.16,7.89-12.24,10.46-25.61,3.11-39.4-1.92-3.37-3.84-6.74-5.77-10.11-2.69-3.32-5.39-6.64-8.09-9.96-.71-1.25-1.98-2.6-.43-3.92,2.01-1.72,4.25-1.3,6.4-.06,9.23,10.32,16.74,21.62,19.34,35.5,1.39,7.44,3.59,14.93,.72,22.53-4.73,3.08-8.36,7.22-11.27,11.99-1.13,1.85-2.08,3.94-4.14,4.81-5.69,2.41-9.25,7.72-14.86,10.39-3.99,1.9-8.34,3-12.11,5.51-1.53,1.02-3.87,.83-5.57-.71Z"/><path class="cls-78" d="M504.29,308.31c6.46,.17,11.23-4.24,16.89-6.13,5.72-1.91,8.4-7.64,13.81-9.57,2.41-.86,3.63-2.39,4.62-4.73,2.19-5.15,7.62-7.86,10.18-12.89,.68-1.34,1.84,.4,2.44,1.33-2.58,3.33-3.45,7.47-5.98,11.02-8.16,11.44-19.9,17.35-32.07,22.83-6.74,3.03-13.54,5.98-20.94,7.12-2.96,.83-6.25,.07-8.99,1.9-.97,.04-1.93,.08-2.9,.12-5.48-.82-10.81,1.09-16.25,.91-1.33-.04-3.56,.66-3.48-1.54,.08-2.09,2.31-1.44,3.63-1.38,8.94,.41,17.49-2.33,26.22-3.45,4.27-.55,9.06-2.47,12.8-5.54Z"/><path class="cls-5" d="M532.18,218.29c-2.4,.71-7.24-2.23-5.96,3.98-1.76-1.79-6.04-2.83-5.03-5.09,.94-2.1,5.13-.64,7.88-.89,1.45-.13,2.57,.56,3.11,2Z"/><path class="cls-55" d="M484.25,319.18c2.54-2.8,5.9-1.72,8.99-1.9-2.85,1.36-6,1.26-8.99,1.9Z"/><path class="cls-75" d="M303.73,218.2c7.75,.91,15.27,1.17,22.67,2.29,5.57,.84,11.16,1.29,16.75,1.86,29.86,3.07,59.79,1.63,89.69,1.89,1.33,.01,2.71-.23,3.99,.05,3.05,.67,6.94-2.29,8.93,.4,2.32,3.15,3.01,7.49,3.47,11.54,.67,5.93,1.71,11.89,.81,17.86-2.16,14.3-9.83,21.92-24.4,24.01-9.85,1.42-19.75,2.63-29.76,2.14-15.74-.76-30.52-4.47-43.39-13.98-6.87-5.07-12.14-11.78-17.66-18.21-8.03-9.36-16.76-17.98-26.31-25.77-1.62-1.32-3.18-2.73-4.77-4.09Z"/><path class="cls-50" d="M471.36,74.31c1.97,.01,3.95,.02,5.92,.04-1.75,.83-3.51,1.67-5.26,2.5-15.43,3.29-30.06,8.74-43.93,16.24-3.43,.94-6.14,3.25-9.22,4.85-1.3,.68-2.27,1.73-1.42,3.2,.99,1.72,2.44,1.2,3.86,.38,15.41-8.82,31.94-14.72,49.25-18.39,11.74-2.48,23.69-3.33,35.69-2.56,13.09,.83,26.21,1.73,39.03,4.67,14.76,3.39,29.51,7.02,40.27,18.95,1.15,1.28,3.52,2.6,2.28,4.46-1.22,1.84-3.33,.11-5.01-.33-13.02-3.47-26.26-5.84-39.68-6.93-25.29-2.05-50.48-1.29-75.45,3.63-1.45,.28-2.98,.12-4.48,.16-.25-.65-.1-1.19,.46-1.62,5.27-2.8,11.28-2.91,16.9-3.71,15.28-2.19,30.71-4.06,46.2-2.02,5.79,.76,11.52,1.08,17.35,.77,2.39-.12,5.07-.24,7.12,1.65,11.36,2.02,22.78,3.75,34.11,6.59-4.31-4.32-8.69-8.51-14.58-10.53-8.99-3.09-17.83-6.47-27.27-8.43-5.42-1.12-10.91-.39-15.96-1.83-7.35-2.1-14.71-1.52-22.07-1.9-10.49-.54-20.83,.41-31.31,1.58-13,1.45-24.05,7.97-36.3,11.19-4.95,1.3-10.03,3.9-14.77,6.5-5.22,2.87-7.66,1.57-7.93-4.15-.38-1.89,1.02-2.69,2.26-3.46,16.35-10.08,33.9-17.31,52.54-21.89,.5-.12,.97,.1,1.39,.37Z"/><path class="cls-95" d="M463.24,104.27c0,.31,0,.61-.01,.92-5.54,2.36-11.63,2.34-17.35,3.99-10.19,2.93-20.62,5.09-30.43,9.27-.15-.12-.3-.24-.44-.37-.58-2.62,1.55-3.06,3.17-3.66,12.98-4.82,26.33-8.31,39.9-10.99,1.79-.35,3.65-.69,5.17,.83Z"/><path class="cls-5" d="M540.07,242.34c4.71,2.8,4.2,8.25,4.81,12.24,1.68,10.96-2.31,20.83-8.66,29.89-6.89,9.82-16.37,16.1-26.94,21.16-1.99,.95-4.93-.29-6.04,2.61-20.05,6.27-40.54,8.46-61.56,8.24-16.41-.17-32.63-1.02-48.73-4.16-2.6-.51-5.84,1.24-7.69-2.07,1.99-.78,3.99-.77,5.98,0,14.41,2.36,28.95,3.5,43.48,4.78,10.14,.89,20.21-.76,30.27-1.81,14.41-1.5,28.52-4.43,41.93-10.06,13.61-5.72,25.48-13.66,32.13-27.53,4.56-9.51,5.86-19.29,1.78-29.38-.49-1.2-.51-2.59-.75-3.9Z"/><path class="cls-18" d="M287.25,280.3c1.3,0,2.6,0,3.9,0,3.41,3.52,8.34,3.67,12.52,5.45,10.52,4.49,21.36,8.18,32.6,10.54,.82,1.17,3.22,.74,3,2.96-18.21-3.92-35.75-9.68-52.02-18.94Z"/><path class="cls-48" d="M339.27,299.24c-1-.99-2-1.97-3-2.96,17.9,5.14,35.77,10.44,54.22,13.35,.28,.04,.51,.4,.76,.61-1.99,0-3.99,0-5.98,0-5.77-1.07-11.57-2.07-17.32-3.04-9.9-1.67-18.89-6.15-28.66-7.97Z"/><path class="cls-92" d="M427.25,78.29l1-2.01c15.04-6.17,30.57-10.54,46.66-13.08,11.02-1.74,22.08-2.38,33.18-1.79,11.07,.59,22.02,2.25,32.71,5.29,.88,.25,1.61,1.06,2.4,1.61-7.62,.74-14.6-2.63-21.97-3.5-.49-.06-.97-.39-1.44-.35-9.18,.72-18.27-1.88-27.4-1.07-8.82,.79-17.53,2.08-26.24,4.32-6.96,1.79-14.17,3.33-21.31,4.76-4.25,.85-8.26,3.01-12.31,4.73-1.72,.73-3.41,1.29-5.29,1.1Z"/><path class="cls-43" d="M525.04,242.43c1.12,3.72,2,7.53,4.14,10.86-.01,3.9,0,7.8-.05,11.7-.02,1.41,.22,3.09-1.96,3.24-2.39-.9-3.37,1.02-4.29,2.44-6.75,10.34-17.33,15.26-28.19,19.42-8.97,3.44-18.34,5.75-28.14,5.59-3.48-.06-6.61,2.28-10.81,1.77,2.83,1.04,5.58-.25,7.51,1.82-.74,.31-1.48,.9-2.22,.89-16.4-.26-32.85,1.24-49.17-1.72-3.23-.59-6.64-.28-9.96-.22-2.64,.04-4.74-.7-6.67-3.97,9.9,0,19.11,.02,28.33-.02,2.08,0,4.46,.59,5.68-1.98,1.12-2.18,3.18-2.65,5.34-2.94,1.59-.21,3.34,.32,4.67-1.06h0c3.35,.24,6.48-.83,8.23-3.51,2.18-3.33,7.84-3.2,7.92-8.35,3.55-3.26,6.17-6.97,6.01-12.08,.52-.37,1.5-.75,1.49-1.1-.28-8.75,4.97-17.18,.78-26.3-1.52-3.32-.38-7.77-2.21-11.5-.64-1.31-.07-3.25,2.07-3.08,10.92,.86,21.75-2.5,32.75-.37,11.73,2.27,20.23,8.81,26.63,18.52,.57,.87,1.08,1.66,2.13,1.93Z"/><path class="cls-33" d="M463.25,299.27c-2.66-.02-5.33,.01-7.99-.08-1.17-.04-2.55-.31-2.43-1.83,.11-1.37,1.49-.95,2.4-1.08,9.45-1.35,19.1-1.89,28.3-4.22,13.46-3.4,26.57-8.16,36.06-19.27,1.27-1.48,2.18-3.26,3.42-4.78,1.39-1.7,2.9-2.39,4.15,.22-.61,1.37-1.23,2.74-1.84,4.12-.3,2.72-2.3,4.24-4.17,5.85-.65,.68-1.3,1.36-1.95,2.05-6.43,3.96-12.43,8.66-19.8,10.97-9.26,2.9-18.69,5.08-28.17,7.06-2.74-.26-5.38,.25-7.99,1.01Z"/><path class="cls-21" d="M439.25,288.26c-.11,1.79-1.38,2.17-2.75,1.95-2.78-.43-4.97,.92-7.26,2.04-2.02-.02-4.05-.05-6.07-.07,4.94-3.03,10.49-3.54,16.08-3.92Z"/><path class="cls-65" d="M60.37,383.3c-1-.03-2-.05-2.99-.11-.88-.05-1.7-.29-1.8-1.32-.1-1.02,.62-1.41,1.51-1.59,9.96-2.06,18.72-7.54,28.52-10.02,2.33-.59,3.23-2.96,5.2-3.68,7.7-2.8,14.2-8.11,22.1-10.41,2.39-.7,4.21-2.53,5.51-4.05,4.21-4.92,9.89-8,14.25-12.96,5.39-6.13,6-14.16,10.79-20.28,1.35,1.14,.58,2.37,.89,3.38-2.22,2.78-2.7,6.29-3.85,9.49-2.97,8.29-7.29,15.47-14.63,20.7-19.99,14.23-41.61,24.93-65.51,30.84Z"/><path class="cls-93" d="M23.28,387.31c7.02,0,14.05,0,21.07,0-7.02,1.51-14.05,1.56-21.07,0Z"/><path class="cls-17" d="M551.06,34.4c11.14,9.82,14.83,23.45,19.32,37.07-2.06,.08-2.55-1.13-3.15-2.2-1.78-5.31-6.89-6.86-11-9.34-4.26-2.57-9.08-4.41-14.04-4.71-6.85-.41-11.07-4.3-14.81-9.31-5.49-7.35-12.32-13.38-19.19-19.37-1.17-1.02-3.25-1.88-2.41-3.87,.78-1.85,2.84-1.36,4.46-1.35,9.23,.03,17.89,1.65,26.47,5.78,4.84,2.33,9.42,5.2,14.36,7.31Z"/><path class="cls-62" d="M439.24,136.28c-.57-3.19-3.62-4.62-5.13-7.18-1.34-2.26-2.4-3.27,1.48-3.99,7.32-1.35,14.61-3.16,21.68-5.48,3.58-1.18,4.67-.91,5.03,2.93,.56,5.98,1.92,11.91,5.13,17.06,4.62,7.42,10.93,12.84,19.79,14.69,10.3,2.23,20.4,.9,30.4-1.79,8.82-2.37,17.24-5.66,24.35-11.61,5.97-5,10.29-11.13,12.36-18.71,1.11-4.05,3.88-5.35,8.28-4.91,8.35,.82,16.11,4.29,24.43,5.08,.9,2.21-.95,3.38-1.86,4.91-1.9,2.77-4.37,4.98-6.95,7.08-14.74,13.65-33.15,18.91-52.17,22.61-16.73,3.25-33.5,4.38-50.36,.4-14.33-3.39-26.47-10.31-36.46-21.08Z"/><path class="cls-80" d="M578.23,134.35c1.87-2.8,4.19-5.15,6.95-7.08,.08,.35,.16,.7,.23,1.06-2.47,1.92-3.74,5.27-7.19,6.02Z"/><path class="cls-80" d="M587.04,122.37c-4.43,1.69-8.73-.03-12.4-1.74-4.76-2.2-9.84-.56-14.55-2.55-1.62-.68-4.07,1.63-4.63,3.67-3.33,12.27-10.65,20.43-22.34,26-12.35,5.88-25.01,8.41-38.42,8.5-2.66,.02-5.29-.11-7.48-1.94,7-.51,14.11,1.22,21.04-.98,19.88-.17,40.83-16.02,45.96-34.94,.58-2.14,1.26-3.4,3.58-3.01,9.9,1.67,19.83,3.25,29.24,6.99Z"/><path class="cls-1" d="M202.26,188.27c-3.2,1.88-5.12,4.89-6.97,7.96-6.93,5.2-8.65,12.75-8.45,20.67,.09,3.4,.24,6.88,.47,10.32-6.4-11.41-1.19-28.86,8.92-37.37,2.36-1.99,4.14-4.77,6.88-6.69,1.96-1.37,1.25-3.92,.27-5.99,5.3,1.96,2.08,5.27,1.13,8.05-.38,1.12-2.28,1.42-2.26,3.05Z"/><path class="cls-8" d="M463.24,104.27c-8.93,.6-17.43,3.25-25.98,5.55-6.02,1.62-11.97,3.56-17.88,5.55-1.59,.53-3.76,.48-4.37,2.71-.58,.74-1.15,1.48-1.73,2.23-3.41-.82-2.02-3.83-2.28-5.77-.28-2.11,2-1.92,3.61-2.38,6.34-1.8,12.51-4.98,18.93-5.55,9.82-.87,18.35-6.3,28.32-6.6,4.35-.13,8.31-2.68,13.13-.21,1.78,.91,5.01-2.16,8.09-2.72,8.88-1.62,17.83-.28,26.74-1.61,7.81-1.17,15.64,.35,23.36,2.59,4.26,1.24,8.89,.12,13.2-1.33,3.26-1.1,5.24-.39,4.88,3.54-9.53-1.55-19.21-.61-28.8-1.77-9.27-1.12-18.57,.75-27.87,1.09-10.57,.39-20.94,2.86-31.35,4.68Z"/><path class="cls-40" d="M521.16,278.19c1.39-1.95,2.78-3.9,4.17-5.85,.55,3.34-.89,5.25-4.17,5.85Z"/><path class="cls-13" d="M572.26,157.32c-.22,1.01,.34,2.69-1.48,2.49-1.42-.16-3.18-.79-3.16-2.56,.01-1.77,1.78-2.39,3.21-2.5,1.75-.13,1.23,1.53,1.44,2.57Z"/><path class="cls-87" d="M185.3,126.28c2.42-2.51,2.83-5.92,3.99-8.99,.2,1.03,.57,2.29,1.81,1.31,1.13-.89,2.33-2.23,2.6-3.55,1.78-8.6,4.91-16.6,8.92-24.44,1.11-2.16-.84-6.52-2.89-9.35-.87-1.2-1.89-2.31-2.69-3.56-.89-1.4-1.08-2.88,.56-3.91,1.59-1,2.25,.3,3.19,1.32,3.77,4.07,6.5,3.89,8.93-1.23,1.25-2.63,3.02-4.19,5.17-5.75,2.71-1.95,5.97-3.04,8.01-6.07,1.93-2.85,4.31-1.44,6.39,.25,1.3,2.23-.65,2.97-1.92,3.76-6.87,4.3-12.78,9.69-18.45,15.43-2.03,2.05-3.31,4.02-2.58,6.93,.69,4.9,3.04,6.11,7.23,3.29,4.26-2.87,7.77-6.66,11.49-10.19,2.75-2.61,5.57-5.3,9.9-4.63,1.72,1.9-1.36,2.69-.96,4.55,3.17-.69,5.85-2.2,8.47-4.23-.73-1.61-2.98-.59-3.52-2.18,.17-3.95,3.17-4.02,5.96-4.38,5.84,1.03,11.75,3.55,16.99-1.33-1.59-1.92-5.48,1.75-7.1-1.8,1.52-3.63,5.3-4.45,8.18-4.79,9.51-1.12,18.74-4.75,28.47-3.72,4.68,.5,9.62-.49,14.01,2.23,1.25,.78,2.92,.68,4.42,.58,10.37-.69,20.09,2.2,29.77,5.33,1.09,.39,2.09,.94,2.94,1.74,2.04,4.2-1.39,3.17-3.37,3.54-1.16-.14-2.22-.56-3.21-1.16-6.25-1.74-12.64-1.62-19.04-1.61-2.43,0-4.94,.44-7.25-.77-1.61-2.49,.81-2.31,1.94-2.68,2.11-.69,4.27,.29,5.92,.13-4.35-1.09-9.34-.28-14.22-.97-2.29,.07-4.63-3.78-6.87,.11-3.96,2.95-8.68,3.97-13.35,4.84-8.02,1.48-15.76,3.98-23.47,6.45-9.31,2.99-17.38,8.81-26.27,12.79-9.44,4.23-16.95,11.42-25.8,16.58-2.85,1.66-3.65,4.63-1.8,7.79,2.29,4.47,5.25,5.27,9.21,1.6,7.88-7.31,17.72-11.29,26.82-16.52,2.02-1.16,3.59-2.93,5.74-3.88,12.49-5.49,25.12-10.12,38.71-12.6,13.66-2.5,27.35-4.11,40.94-2.36,19.14,2.47,36.01,10,46.67,27.47,.3,3.15-1.5,3.1-3.8,2.61-4.06-.86-8.1-1.82-12.16-2.66-8.2-1.69-16.45-2.21-24.79-1.95-2,.06-4-.06-5.83-1.05-5.43-3.6-11.71-2.49-17.47-2.29-19.76,.68-39.16,4.38-58.35,8.93-11.74,2.79-23.27,6.59-34.46,11.08-5.95,2.39-11.7,5.45-17.63,8.01-2.3,.99-3.33,2.77-1.55,5.18,.64,2.23,1.8,4.42,.41,6.76-.29-.16-.56-.4-.87-.48-1.79-.45-1.99-5.33-5.15-1.91-2.39,2.6-2.15,7.28,1.01,8.55,4.71,1.9,7.02,6.48,11.27,8.79,1.46,.79,3.21,2.18,2.4,4.41-.46,1.27-1.49,2.27-2.91,2.48-2.15,.33-3.97-.52-5.24-2.18-.68-.88-.85-2.14-1.32-3.19-2.4-5.34-2.55-5.37-7.18-2.01-.64,.47-1.18,1.35-2.12,.74-1.17-.76-2.23-1.91-1.8-3.28,2.06-6.5-.78-12.24-2.63-18.11-1.09-3.47,1.92-3.05,3.37-3.55,3.1-1.07,2.25-3.47,2.02-5.37-.38-3.14-2.58-.44-3.87-.89Z"/><path class="cls-89" d="M507.17,45.38c1.91,1.54,3.81,3.09,5.61,4.54-.43,1.71-1.6,1.33-2.49,1.31-32.74-.87-62.94,8.68-92.06,22.55-3.42,1.63-8.02,2.17-8.17,7.46-4.16-4.01-3.97-6.29,.53-9.19,3.37-2.17,7.81-2.57,10.66-4.72,3.89-2.92,8.26-3.99,12.32-6.06,2.21-1.13,5.95-.21,6.35-4.33,.08-.85,1.73-.6,2.71-.39,4.36,.95,8.48-.03,12.46-1.72,8.6-3.65,17.7-5.28,26.87-6.5,4.45-.59,8.67-1.85,13.58-.43,3.35,.97,7.72-1.57,11.63-2.54Z"/><path class="cls-98" d="M198.29,142.27c-.39-2.32-.78-4.63-1.17-6.95-.16-1.7,.73-2.34,2.3-2.29,.73,.39,1.22,.97,1.4,1.79,.12,5.74,3.9,9.56,7.6,13,18.92,17.64,41.3,27.27,67.23,29.27,24.7,1.9,48.33-2.37,71.49-10.37,15.28-5.28,27.28-15,36.85-27.87,2.17-1.02,2.25-4.44,5.2-4.58,.17,5.99-3.78,10.29-7.08,14.24-5.62,6.72-11.72,13.39-20.82,15.78-5.22,3.82-11.25,5.89-17.25,8-2.91,1.02-5.98,1.61-8.79,2.96h0c-9.27,2.36-18.74,3.44-28.16,4.9-11.29,1.75-22.38,1.58-33.6,1.11-1.18-.05-2.31-.18-3.27-.95-.65-.01-1.29-.02-1.94-.03-4.99-1.08-10.31-.51-15.02-2.98h0c-5.02-1.63-10.2-2.76-15-5.01-3.99-2.02-7.98-4.03-11.97-6.05-1.97-1.36-3.89-2.81-6-3.95-6.83-5.28-14.07-10.11-19.07-17.42-.71-1.04-1.94-1.74-2.93-2.6Z"/><path class="cls-96" d="M471.36,74.31c-5.96,1.99-11.91,3.98-17.87,5.98-13.21,4.42-25.61,10.54-37.47,17.8-.39,.24-.57,.79-.85,1.2-2.42,.96-1.83-.85-1.92-2.06-.15-2.27,.79-4.37,2.91-4.63,5.29-.66,8.76-4.38,12.73-7.11,3.28-2.25,6.95-2.64,10.44-3.9,7.32-2.64,14.25-7.6,21.69-8.42,9.21-1,17.34-6.71,27.47-4.46,5.72,1.27,12.37-.94,18.59,.56,1.12,.27,2.28,.3,3.37,1.77-1.45,.09-2.64,.28-3.8,.2-11.31-.78-22.44,1.36-33.65,2.13-.56,.04-1.09,.61-1.63,.94Z"/><path class="cls-56" d="M389.21,134.27c-1.83,1.27-1.54,4.27-4.07,4.96-1.25-2.03-.22-3.94,.58-5.68,4.69-10.25,2.55-19.77-2.95-28.91-4.05-6.72-8.59-13.07-15.22-17.58-3.29-2.24-5.37-5.16-6.43-9.1-2.35-8.74-8.86-13.75-16.6-17.48-9.57-4.61-19.77-7.25-30.27-7.59-12.93-.42-25.91-1.1-38.82,.7-8.3,1.16-16.14,3.82-23.9,6.85-2.25,.87-4.46,2.48-7.11,1.16-.4-.44-.53-.94-.4-1.52,.39-.96,.98-1.86,1.9-2.24,10.58-4.4,21.08-9.15,32.97-8.39,.5,.03,.95,.3,1.39,.53,15.17-1.86,30.32-1.54,45.32,1.33,14.25,2.73,27.8,7.06,36.43,20.12,1.57,2.37,3.12,4.72,3.24,7.7,.1,2.5,2.03,3.66,3.73,4.99,10.7,8.43,18.42,18.94,22.34,32.1,1.36,4.01,1.59,8.01-.08,12-1.69,1.68-.25,4.4-2.02,6.05Z"/><path class="cls-14" d="M280.26,49.98c-11.35,.28-21.8,4.19-32.24,8.09-1.35,.51-2.52,1.52-3.77,2.3-6.1,4.74-13.16,8-19.31,12.72-2.34,1.8-4.78,3.44-6.82,5.59-1.53,1.4-2.92,2.94-4.57,4.2-3.14,1.26-4.29,5.47-8.23,5.54-1.36-1.96-.85-4.57,.43-5.48,4.32-3.07,7.17-7.52,11.18-10.9,4.03-3.4,9.4-5.08,12.39-9.74,5.82-3.29,11.9-6.7,18.05-8.5,7.88-2.32,15.26-8.12,24.27-5.59,2.84,.8,6.34-1.63,8.63,1.77Z"/><path class="cls-36" d="M370.27,20.32c8.25-5.04,17.6-7.14,26.65-10.07,9.05-2.94,18.53-2.73,27.76-3.45,6.89-.54,14.17,1.34,21.23,2.82,7.19,1.51,14.02,3.66,20.69,6.6,1.11,.49,2.12,.9,2.64,2.04-9.52-3.6-19.34-6.23-29.25-8.45-3.32-.74-6.85-.79-10.28-.78-7.74,.04-15.53-.19-23.18,.7-4.25,.49-8.58,1.68-12.83,2.9-7.92,2.28-14.81,7.67-23.43,7.68Z"/><path class="cls-49" d="M19.33,206.26c-2.14-4.28-1.36-9.06-1.75-13.52-1.03-11.68-1.29-23.46-1.14-35.19,.13-10.21,1.24-20.4,1.98-30.6,.04-.58,.6-1.12,.92-1.67-.02,8.78,.85,17.68-.34,26.3-.87,6.32-2.94,12.88-1.37,18.84,3.15,11.97,.73,23.93,1.7,35.84Z"/><path class="cls-85" d="M270.22,180.31c4.83-.37,9.51,1.06,14.36,1.06,14.67,0,29.01-2.43,43.3-5.26,2.47-.49,4.87-.93,7.38-.85-4.34,4.39-10.63,3.88-15.66,4.51-15.35,1.92-30.86,3.59-46.43,2.5-1.44-.1-2.65-.26-2.94-1.95Z"/><path class="cls-49" d="M192.23,36.35c3.42,.27,6.12-.97,9.1-2.83,9.6-5.97,19.72-11.01,30.98-13.2-1.34,2.42-4.08,3.22-6.19,3.67-6.9,1.47-12.73,4.97-18.46,8.67-3.01,1.95-6.63,2.51-9.41,5.16-1.46,1.39-4.49,1.07-6.03-1.47Z"/><path class="cls-85" d="M335.26,175.26c2.18-2.99,5.82-2.67,8.79-3.89,5.75-2.36,11.5-4.71,17.25-7.07-.06,1.45-.77,2.82-1.99,3.21-8.03,2.54-15.33,7.37-24.05,7.75Z"/><path class="cls-49" d="M23.36,104.31c1.18-7.87,3.36-15.37,7.98-22,1.05,4.97-3.12,8.28-4.13,12.67-.72,3.13-.49,7.11-3.85,9.32Z"/><path class="cls-85" d="M253.26,177.3c5.19,.08,10.09,1.59,15.02,2.98-5.04-.81-10.85,2.21-15.02-2.98Z"/><path class="cls-49" d="M14.33,328.23c.71-5.62,2.27-10.98,4.99-15.98,.23,5.92-2.58,10.88-4.99,15.98Z"/><path class="cls-98" d="M391.23,128.22c.03-4,.05-8,.08-12,2.81,3.61,2.77,9.35-.08,12Z"/><path class="cls-85" d="M238.26,172.29c5.18,1.15,10.36,2.29,15,5.02-5.48-.24-10.52-1.79-15-5.02Z"/><path class="cls-36" d="M471.11,18.39c3.91,2.82,9.08,3.71,12.12,7.88-4.26-2.29-9.93-2.4-12.12-7.88Z"/><path class="cls-49" d="M19.35,125.3c-.09-4.45,.25-8.84,1.99-13.01,0,3.08,0,6.16-.03,9.24-.02,1.56,.41,3.41-1.96,3.77Z"/><path class="cls-49" d="M23.39,286.35c-.26-4.83,.42-9.52,1.94-14.1-.59,4.71,1.59,9.8-1.94,14.1Z"/><path class="cls-49" d="M25.33,254.25c-1.39-4.93-2.18-9.94-1.95-15.08,2.69,4.76,1.83,9.98,1.95,15.08Z"/><path class="cls-92" d="M417.28,82.29c2.94-2.28,5.87-4.59,9.96-4-3.21,1.61-5.91,4.49-9.96,4Z"/><path class="cls-49" d="M23.3,234.25c-1.66-2.81-2.1-5.88-1.93-9.08,3.8,2.35,1.13,6.08,1.93,9.08Z"/><path class="cls-49" d="M21.32,223.25c-1.7-4.19-1.01-8.74-1.95-13.05,2.96,4,1.66,8.65,1.95,13.05Z"/><path class="cls-49" d="M21.34,112.29c-.06-2.85-.03-5.68,2.03-7.99-.85,2.62,1.9,6.15-2.03,7.99Z"/><path class="cls-92" d="M410.24,81.29c2.07,2.13,4.48,1.94,7,1.03-2.89,3.04-4.89,2.75-7-1.03Z"/><path class="cls-49" d="M21.37,300.32c-.14-2.57,.29-4.99,1.95-7.06-.61,2.36,1.66,5.52-1.95,7.06Z"/><path class="cls-44" d="M382.21,39.33c2.88-.09,6.31,.63,6.07-4.09,1.38,1.48,1.42,3.22-.14,4.29-1.82,1.24-4,1.37-5.93-.2Z"/><path class="cls-49" d="M19.36,310.29c.35-2.76,.6-5.54,1.96-8.05-.78,2.65,1.89,6.14-1.96,8.05Z"/><path class="cls-85" d="M220.29,162.29c2.62,.38,4.69,1.58,6,3.95-3,.2-4.32-2.15-6-3.95Z"/><path class="cls-94" d="M205.28,114.3c-2.93-2.8-1.85-8.12,1.66-10,5.86-3.14,11.92-6.11,16.65-10.91,3.62-3.67,8.77-4.15,12.82-6.91,5.44-3.71,12.16-5.02,17.39-9.38,2.06-1.72,5.39-1.95,8.16-2.78,9.33-2.8,19.04-4.22,28.18-7.7,2.05-.78,4.87,.52,6.18-2.28,1.97-1.73,3.97-.72,5.95-.03,6.85-.33,13.61,.35,21.39,1.68-5.2,2.77-10.23-.2-14.38,2.25-2.78,2.07-6.08,2.23-9.33,2.37-2.18,.1-4.25,.32-6.07,1.62-1.93,1.16-4.06,1.42-6.25,1.4-2.78-.1-5.55-.09-8.03,1.49-11.63,3.83-23.21,7.78-34.11,13.47-1.91,1-3.85,1.93-5.59,3.21-9.79,5.33-18.87,11.75-27.91,18.22-2.73,.64-4.01,3.6-6.73,4.27Z"/><path class="cls-46" d="M199.34,133.4c-1.12,.2-1.71,1.01-2.22,1.93-3.18-1.77-2.1-3.47-.11-5.49,2.23-2.27,5.54-2.5,8.04-3.26,5.37-1.63,9.83-4.95,15-6.9,6.06-2.3,12.37-3.73,18.44-5.91,7.27-2.62,14.66-5.13,22.63-5.84,3.73-.33,7.87-.85,11.48-2.07,12.21-4.14,24.98-3.89,37.49-4.85,5.41-.42,11.95-1.92,17.17,2.3-3.28,2.45-7.07,.96-10.61,1.4-3.99,.17-8.01-.51-11.97,.51-10.51,2.27-21.3,2.59-31.81,5.11-14.99,3.59-29.71,7.97-44.3,12.86-8.34,2.79-16.41,6.25-24.48,9.7-1.54,.66-3.04,1.39-4.74,.53Z"/><path class="cls-67" d="M205.31,88.42c2.97-1.58,4.31-5.2,7.75-6.2,1.32,3.69-3.63,4.4-3.58,7.73,2,.5,2.85-1.18,3.93-2.18,16-15.02,34.56-25.3,56.26-29.02,10.42-1.79,20.98-2.09,31.7-1.06,11.47,1.1,22.74,2.53,33.61,6.37,2.12,.75,5.07,.93,5.15,4.3-11.01-2.96-22.02-5.12-33.6-5.63-5.74-.25-11.86-2.62-17.92-2.31-11.06,.58-21.96,2.38-32.42,6.23-.46,.17-.65,1.05-.97,1.6-3.08,1.77-6.32,3.02-9.94,3.05-2.09,1.19-5.32,.66-6,3.97-.96,1.42-2.32,2.04-4.01,2.01-5.92,.69-9.33,5.16-13.23,8.85-2.6,2.45-5.02,5.11-8.1,6.96-5.47,3.28-8.58,1.56-8.64-4.68Z"/><path class="cls-74" d="M373.13,107.4c-6.98-7.66-14.09-15.05-23.49-19.99-2.6-1.37-5.34-1.43-7.84-2.17-7.24-2.12-14.37-4.67-22.43-4.3-8.03,.37-16.06,.69-24.08,1.33-5.51,.44-10.77,2.03-16.08,3.37-2.37,.6-4.99,.4-7.25,1.23-8.26,3-16.42,6.28-24.62,9.45-2.8,.35-4.84,4.18-8.24,1.82,.03-2.37,2-2.82,3.61-3.59,24.92-12.01,51.02-19.02,78.89-17.51,12.05,.65,23.56,3.88,34.19,9.82,7.28,3.57,12.59,9.27,17.06,15.88,.6,1.32,1.36,2.62,.83,4.17-.17,.17-.35,.34-.52,.51Z"/><path class="cls-74" d="M316.29,103.31c3.66,0,7.31-.01,10.97-.02,1.51,.83,3.15,.96,4.82,.89,13.33-.55,26.35,1.43,39.12,5.14,2.39,.7,2.09-.48,1.93-1.92,.14-.12,.27-.23,.41-.35,1.99,.34,2.8,1.62,2.19,3.42-.7,2.06-2.64,1.97-4.42,1.93-16.6-3.65-33.36-6.35-50.4-5.62-26.52,1.13-52.54,5.33-77.84,13.65-12.8,4.21-25.47,8.73-37.92,13.89-1.54,.64-3.12,1.28-4.71,.06-.37-.33-.73-.67-1.1-1,13.54-6.18,27.41-11.56,41.64-15.86,18.48-5.58,37.02-11.1,56.48-12.32,2.3-.14,4.57-.63,6.86-.96,3.91-1.29,8.06,.39,11.97-.95Z"/><path class="cls-86" d="M340.13,68.36c-6.8-4.96-14.88-6.15-22.83-7.49-18.46-3.11-37.01-4.03-55.3,.82-17.76,4.71-33.32,13.67-46.81,26.15-1.22,1.13-2.35,2.35-3.58,3.47-1.06,.96-2.4,1.54-3.59,.49-1.45-1.28-.64-2.68,.29-3.97,1.44-2,3.93-3.1,4.75-5.62,1.41-1.33,2.83-2.66,4.24-3.99,.73-.47,1.45-.56,2.15,.05q-.93,2.76-4.76,6.59c4.06-3.86,8.93-8.31,14.72-11.61,5.93-3.37,11.68-7.07,18.04-9.66,6.19-2.51,12.51-4.7,19.01-6.07,6.67-1.41,13.51-1.63,20.36-1.63,15.35,.01,30.63,.25,45.35,5.46,3.79,1.34,7.38,3.06,10.92,4.93,1.59,.84,3.4,1.61,3.36,3.9-1.76,1.57-2.85-.32-4.22-.81-.7-.34-1.4-.68-2.1-1.02Z"/><path class="cls-7" d="M287.24,72.34c2.03-.18,4.16,.12,5.95-1.2,12.33-2.55,24.75-3.28,37.24-1.5,2.26,.32,4.64-.55,6.78,.73,.68,.31,1.36,.62,2.04,.94,.33,.57,.23,1.05-.29,1.44-3.79,1.64-7.65,.23-11.3-.26-13.83-1.87-27.21,.65-40.59,3.35-14.12,2.85-27.42,8.16-40.4,14.3-1.65,.78-3.24,1.73-5.1,1.97-.89,.04-1.7-.15-2.33-.85,1.43-2.55,4.26-3.01,6.53-4.15,10.74-5.38,21.84-9.91,33.51-12.9,2.53-1.17,5.34-1.12,7.96-1.87Z"/><path class="cls-70" d="M239.27,98.28c2.77-.28,5.16-2.16,8.05-1.97-7.81,5.12-15.55,10.32-24.15,14.12-2.29,1.01-4.49,2.84-5.99,4.85-1.69,2.26-3.84,2.42-6.14,3.28-4.84,1.8-5.33-.86-5.76-4.26,1.5-2.23,3.04-4.41,5.92-5,.71,.94,.06,1.65-.38,2.41-.38,.54-.8,1.05-1.17,1.59-.53,3.23,1.29,1.11,1.88,.72,5.91-3.9,11.53-8.27,17.73-11.67,3.12-1.71,5.73-5.08,10-4.05Z"/><path class="cls-15" d="M197.11,125.32c-1.45-.21-3.06,.4-3.59-1.36-.39-1.29-.48-2.66,.84-3.61,1.13-.81,2.16-1.71,1.72-3.26-.41-1.45-.27-2.82,1.09-3.46,1.55-.73,2.85,.5,4.09,1.26,2.46,1.51,2.15,4.64,3.72,6.77,.82,1.12-.79,2.3-2.23,2.59-1.94,.39-3.89,.73-5.64,1.05Z"/><path class="cls-15" d="M245.29,71.31c3.08-1.78,6.13-3.66,9.94-3.05,3.71-.64,7.52-1.88,10.77,2.17-6.99,1.7-13.58,5.7-20.71,.88Z"/><path class="cls-15" d="M235.28,77.29c1.01-1.32,2.42-1.84,4.01-2.01,1.8,.75,4.53-1.75,5.36,.52,.98,2.68-2.52,2.92-4.01,4.15-1.46,1.21-3.52,1.75-5.38,2.44-1.15,.43-2.66,1.63-3.55,.08-1-1.73,.63-2.56,1.91-3.4,.66-.43,1.11-1.17,1.65-1.78Z"/><path class="cls-67" d="M337.21,70.37c-14.71-1.95-29.37-1.2-44.01,.77,4.96-3.19,10.79-1.55,16.08-2.91,8.28,.2,16.6-.53,24.83,1.03,1.11,.21,2.37-.13,3.09,1.11Z"/><path class="cls-67" d="M339.27,72.27c.02-.32,.02-.64-.02-.96,.85-.86,3.88,1.65,2.98-1.92,1.32,.32,2.65,.64,3.97,.97,1.03,.09,1.83,.61,2.48,1.38,.75,.89,1.41,1.89,.83,3.09-.62,1.29-1.87,1.23-2.97,.92-2.62-.74-5.49-1-7.28-3.48Z"/><path class="cls-15" d="M269.61,64.82c2.67-.52,4.87-1.04,7.09-1.35,1.07-.15,2.07,.51,2.09,1.65,.02,1.02-1.01,1.24-1.85,1.14-2.31-.28-4.91,.9-7.33-1.43Z"/><path class="cls-15" d="M210.18,98.8c-.31,1.2-.41,2.76-2,2.99-1.17,.17-1.78-.93-1.72-1.96,.08-1.3,.37-2.82,1.94-3.07,1.18-.19,1.6,.92,1.78,2.04Z"/><path class="cls-15" d="M302.28,64.3c-1.98,.01-3.97,.02-5.95,.03-1.06-1.02-.81-1.76,.58-1.96,2.09-.3,3.96,.24,5.38,1.92Z"/><path class="cls-30" d="M339.27,72.27c3.08,.92,6.17,1.84,9.31,2.78,.73-2.65-1.55-3.27-2.38-4.69-6.21-5.67-14-8.08-21.87-9.88-18.46-4.21-37.24-4.71-55.87-1.9-12.33,1.85-23.74,6.99-34.52,13.49-7.73,4.66-14.91,9.9-21.26,16.28-.77,.77-1.49,1.77-3.32,1.47,2.25-5.02,7.46-7.16,9.88-11.58,.9-3.68,4.54-4.39,7.02-6.27,5.59-4.22,11.26-8.42,18.1-10.53,7.39-1.9,14.13-5.74,21.66-7.26,23.65-4.77,47.31-5,70.55,1.72,12.8,3.7,24.02,10.23,26.86,25.15,.33,1.73,1.96,2.58,3.31,3.57,8.74,6.45,15.24,14.67,19.91,24.49,3.98,8.37,4.06,16.59,.28,24.97-.74,1.65-1.2,3.43-1.79,5.15-13.72,20.12-33.9,29.37-56.84,34.51-14.03,3.14-28.11,5.36-42.44,5.33-20.99-.05-41-4.7-59.1-15.5-9.97-5.95-19.24-13.09-26-22.93-1.52-2.21-2.11-4.07-.32-6.26,11.19-4.17,22.3-8.57,33.57-12.48,31.69-11.01,64.24-17.27,97.9-16.34,13.3,.37,26.52,1.96,39.38,5.7,1.55,1.09,3.6,1.91,4.86,.5,1.13-1.27-.41-3-1.22-4.39-.82-1.41-1.61-2.85-2.74-4.05-4.57-5.8-9.42-11.31-15.93-15.05-9.74-6.54-20.74-9.42-32.21-10.45-21.16-1.9-41.58,1.87-61.47,8.89-17.3,6.11-33.18,14.89-47.94,25.74-.94,.69-1.92,1.29-2.9,1.92-3.33,2.14-3.31,.33-2.64-2.25,.35-.33,.71-.67,1.06-1,8.32-6.21,16.72-12.3,25.84-17.34,1.76-.97,3.69-1.38,5.36-2.42,21.09-11.05,43.3-18.16,67.16-20.35,10.41-.96,20.51,.55,30.75,1.24Z"/><path class="cls-67" d="M244.36,61.44c-8.7,5.12-17.47,10.12-25.13,16.8-.64,0-1.29,0-1.93,0,7.86-7.65,16.78-13.7,26.95-17.86,.04,.36,.07,.71,.11,1.06Z"/><path class="cls-90" d="M241.36,91.38c-7.4,4.67-14.79,9.35-22.2,13.99-3.02,1.89-5,5.4-9,5.77,.35-.61,.7-1.23,1.04-1.84,8.95-6.62,17.82-13.36,28.03-18.03,.71,.04,1.42,.08,2.13,.12Z"/><path class="cls-67" d="M287.24,72.34c-2.53,1.16-5.11,2.1-7.96,1.87,2.24-2.39,5.14-1.96,7.96-1.87Z"/><path class="cls-87" d="M316.29,103.31c-3.87,1.82-7.99,.54-11.97,.95,3.85-2.04,7.99-.54,11.97-.95Z"/><path class="cls-90" d="M209.1,112.13c.06,4.43,2.37,1.84,3.5,.92,7.91-6.42,16.62-11.6,25.6-16.25,20.91-10.84,42.8-18.17,66.61-19.84,16.46-1.16,32.02,1.09,47.11,7.45,1.9,.8,3.38,2.04,4.35,3.86-8.9-4.05-17.89-7.66-27.71-9.08-14.52-2.11-28.78-.68-43.04,2.01-15.6,2.94-30.11,8.99-44.49,15.42-.69,.31-1.18,1.1-1.76,1.66-9.97,4.49-18.72,10.95-27.54,17.27-1.17,.84-2.35,2.35-3.77,.63-1.39-1.68-.5-3.05,1.14-4.05Z"/><path class="cls-34" d="M372.19,103.33c3.11,1.46,3.94,4.71,5.47,7.31,1.15,1.96,.17,3.59-2.42,3.08-1.54-.31-3.32-.54-3.95-2.45,1.3-.31,3.11,.94,3.84-.98,.54-1.43-.57-2.39-1.59-3.23-.45-1.24-.89-2.49-1.34-3.73Z"/><path class="cls-11" d="M223.22,147.47c-.17,0-.37,.06-.49-.02-2.79-1.78-6.65-3.62-6.66-6.78,0-3.4,4.65-2.91,7.18-3.96,6.91-2.85,14.14-4.88,21.14-7.54,3.32-1.26,4.69-.84,5.4,2.94,3.65,19.41,12.38,25.67,32.39,29.94,11.3,2.41,22.4,1.6,33.43-2.1,14.44-4.84,29.61-23.47,30.85-38.79,.2-2.51,.47-4.37,3.66-3.7,8.3,1.72,16.63,3.24,24.73,5.88,4.09,1.33,4.17,3.42,2.8,6.77-4.98,12.19-14.57,19.91-25.99,25.01-28.85,12.89-59.02,16.94-90.18,10.74-7.06-1.41-14.3-3.09-20.39-7.49,.35-.43,.8-.72,1.35-.85,7.39,1.24,14.13,4.75,21.54,6.06,17.33,3.06,34.5,3.87,51.85-.41,11.82-2.91,23.69-5.37,34.66-10.88,9.11-4.58,16.87-10.69,22.17-19.5,2.79-4.64,2.34-5.05-2.81-6.63-4.3-1.32-8.78-1.82-13.07-3.21-3.65-1.18-6.05-.18-7.32,4.14-3.43,11.72-9.19,22.14-19.34,29.51-7.19,5.22-15.71,7.01-24.22,8.52-11.26,1.99-22.47,1.68-33.49-1.68-1.92-1.56-4.1-2.55-6.55-2.97-9.58-2.91-14.03-10.72-17.21-19.15-3.17-8.38-2.72-8.55-11.25-5.92-.95,.29-1.88,.63-2.84,.88-2.97,.63-5.85,1.5-8.6,2.8q-5.27,2.51-2.34,7.13c.05,.48-.09,.9-.41,1.26Z"/><path class="cls-83" d="M313.8,135.42c-6.44,.05-11.72-3.58-11.43-7.88,.29-4.32,6.57-7.54,12.78-6.56,5.55,.88,9.25,4.04,8.96,7.65-.29,3.62-5.04,6.75-10.32,6.79Z"/><path class="cls-58" d="M223.22,147.47c.02-.4,.05-.79,.07-1.19,1.12-.92,2.23-.5,3.15,.23,4.53,3.6,9.43,6.59,14.6,9.16,.9,.45,1.52,1.25,1.47,2.38-.47,.1-.94,.21-1.41,.31-6.76-2.33-12.75-5.91-17.88-10.9Z"/><path class="cls-62" d="M242.51,158.05c-6.41-3.93-12.81-7.85-19.22-11.78-5.54-4.59-5.5-4.77,2-7.99,3.1-.73,6.24-1.33,9.04-2.98,3.33-1.87,7.5-1.48,10.62-4.01,1.91-1.55,1.94,.12,2.33,1.49,1.94,6.83,3.86,13.56,8.67,19.24,2.91,3.44,5.87,6.24,10.28,7.3,1.71,1.61,4.04,1.91,6.06,2.88,13.61,3.86,27.28,4.66,40.89,.25,5.9-1.91,11.87-3.45,17-7.69,4.94-4.08,9.12-8.62,12.19-14.04,3.01-5.32,5.62-11.01,6.71-17.09,.5-2.8,1.34-2.72,3.8-2.55,7.45,.5,14.29,3.61,21.64,4.55,3.38,.43,1.62,3.38,.84,5.2-3.17,7.44-8.82,12.96-15.26,17.36-15.15,10.34-32.53,14.5-50.39,17.07-6.07,.87-12.09,1.85-18.27,1.95-16.96,.29-33.32-2.26-48.91-9.15Z"/><path class="cls-58" d="M234.32,135.3c-2.44,2.74-5.57,3.37-9.04,2.98,2.75-1.78,5.79-2.7,9.04-2.98Z"/><path class="cls-58" d="M272.27,162.19c-2.66,.39-4.75-.42-6.06-2.88,2.19,.6,4.68,.57,6.06,2.88Z"/></g></svg>